<?xml version="1.0" encoding="UTF-8"?>
<!DOCTYPE svg PUBLIC "-//W3C//DTD SVG 1.1//EN" "http://www.w3.org/Graphics/SVG/1.1/DTD/svg11.dtd">
<!-- Creator: CorelDRAW 2019 (64-Bit) -->
<svg xmlns="http://www.w3.org/2000/svg" xml:space="preserve" width="8.26772in" height="8.71437in" version="1.1" style="shape-rendering:geometricPrecision; text-rendering:geometricPrecision; image-rendering:optimizeQuality; fill-rule:evenodd; clip-rule:evenodd"
viewBox="0 0 290.86 306.58"
 xmlns:xlink="http://www.w3.org/1999/xlink"
 xmlns:xodm="http://www.corel.com/coreldraw/odm/2003">
 <defs>
  <style type="text/css">
   <![CDATA[
    .fil1 {fill:#FEFEFE}
    .fil0 {fill:#2B2A29}
    .fil3 {fill:#C6B89D}
    .fil2 {fill:#F8E6C4}
   ]]>
  </style>
 </defs>
 <g id="Layer_x0020_2">
  <metadata id="CorelCorpID_0Corel-Layer"/>
  <path class="fil0" d="M145.63 274.83c89.45,-42.65 113.86,-114.35 115.82,-208.3l-114.15 -36.14 -0.56 -0.2c-0.11,-0.04 -0.23,-0.08 -0.34,-0.12 -0.43,0.14 -0.86,0.29 -1.27,0.42 -38.55,12.42 -77.23,24.42 -115.82,36.72 -1.15,95.21 26.29,170.16 116.32,207.63zm-134.24 -232.65c42.23,-13.51 82.54,-26.06 124.77,-39.57 10.56,-3.5 10.82,-3.48 20.55,0.04l124.82 39.52c0,0 8.93,2.35 9.34,14.2 -0.41,100.75 -22.7,198.21 -144.4,250.21 -96.21,-34.96 -150.7,-109.68 -146.21,-250.26 0.48,-8.1 2.12,-11.83 11.12,-14.13z"/>
  <path class="fil1" d="M145.63 274.83c89.45,-42.65 113.86,-114.35 115.82,-208.3l-114.15 -36.14 -0.56 -0.2c-0.11,-0.04 -0.23,-0.08 -0.34,-0.12 -0.43,0.14 -0.86,0.29 -1.27,0.42 -38.55,12.42 -77.23,24.42 -115.82,36.72 -1.15,95.21 26.29,170.16 116.32,207.63z"/>
  <g id="_1528171235888">
   <path class="fil0" d="M187.41 68.62l31.74 8.19 0.23 112.76 -32.03 -8.39 0.08 -22.38 5.72 -0.69c2.02,-5.93 -0.62,-5.52 -5.73,-6.37l0 -83.12zm-38.39 120.99l-0.48 -31.05 6.83 -0.19c1.95,-0.79 3.95,-2.98 1.61,-5.32 -1.77,-1.77 -5.64,-1.06 -8.19,-1.06l-0.09 -20.38c3.26,-0 6.3,0.2 6.52,-3.1 0.24,-3.68 -3.19,-3.56 -6.51,-3.57l0 -47.11c1.2,-1.77 1.21,-1.38 3.46,-1.97l28.5 -7.47 0.07 112.94 -31.72 8.29zm-12.06 -87.12l5.08 0 0 87.16 -32 -8.39 -0.03 -112.8 28.3 7.36c5.43,1.4 3.73,1.37 3.73,20.01 -2.68,0 -7.4,-0.69 -8.91,1.05 -2.36,2.73 0.02,5.61 3.84,5.61zm-39.97 -1.03c2.74,1.27 2.7,1.03 6.34,1.03l0 78.84 -31.99 8.42 -0.05 -111.92c0.64,-2.08 13.56,-4.59 15.55,-5.09 5.5,-1.39 11.11,-3.18 16.41,-4.35l0.08 27.44c-4.26,0 -8.02,-0.13 -6.34,5.63zm-30.85 95.41c6.13,1.38 31.75,-8.8 39.77,-9.36 4.64,-0.33 34.83,9.88 39.92,9.65 8.4,-0.38 33.4,-10.59 39.84,-9.5 8.13,1.37 33.73,10.91 39.65,8.98 1.04,-3.31 1.42,-119.61 0.16,-124.2 -4.09,-2.94 -25.4,-7.5 -32.42,-9.45 -9.27,-2.57 -7.61,-2.63 -16.73,-0.33 -5.35,1.35 -10.45,2.73 -16,4.3 -18.24,5.14 -13.99,4.37 -32.64,-0.77 -28.01,-7.72 -18.54,-5.8 -49.32,1.93 -2.56,0.64 -5.45,1.55 -8.01,2.15 -3.51,0.83 -5.29,0.64 -5.71,4.4l-0.02 103.42c0,7.08 -1,14.92 1.51,18.8z"/>
   <path class="fil2" d="M85.34 93.6c2.04,-1.18 3.16,-3.49 5.43,-3.71 2.64,-0.26 4.51,1.97 3.29,4.55 -0.96,2.02 -3.59,2.14 -2.1,5.45 0.24,0.53 5.26,5.55 0.2,7.36 -3.01,1.08 -2.9,-2.02 -6.58,-3.66 -2.07,1.34 -6.07,6.64 -8.49,1.59 -0.78,-3.6 2.29,-4.09 3.65,-7.37 -1.25,-0.91 -5.81,-4 -3.14,-6.99 3,-3.35 6.33,1.64 7.74,2.78zm11.66 7.85c-1.67,-5.77 2.08,-5.63 6.34,-5.63l-0.08 -27.44c-5.3,1.16 -10.91,2.95 -16.41,4.35 -1.99,0.5 -14.91,3.01 -15.55,5.09l0.05 111.92 31.99 -8.42 0 -78.84c-3.64,0 -3.6,0.24 -6.34,-1.03z"/>
   <path class="fil3" d="M195.19 146.9c5.18,-0.97 4.67,1 7.77,3.33 2.4,-1.22 5.11,-6.27 8.41,-2.06 1.6,3.7 -1.49,4.4 -2.78,7.06 -0.12,1.75 5.52,4.78 2.31,7.93 -3.12,3.08 -6.18,-1.74 -7.95,-2.78 -1.67,1.5 -3.76,4.79 -6.98,3.25 -1.81,-1.29 -2.37,-2.38 -1.19,-4.44 1.02,-1.8 2.07,-1.79 3.18,-3.96 -2.78,-3.7 -4.88,-2.86 -2.78,-8.33zm-7.77 4.84c5.11,0.84 7.75,0.44 5.73,6.37l-5.72 0.69 -0.08 22.38 32.03 8.39 -0.23 -112.76 -31.74 -8.19 0 83.12z"/>
   <path class="fil3" d="M139.03 152.69c3.77,8.1 -8.31,6.78 -11.12,3.95 -2.14,-2.16 -0.56,-5.37 2.07,-5.54 0.79,-0.05 8.45,1.38 9.05,1.59zm-18.08 -3.17c-2.23,-3.29 -4.49,-11.8 0.48,-12.92 4.97,-1.12 4.66,10.21 3.66,12.59l-4.14 0.34zm4.36 -16.42c-1.52,-3.76 -0.63,-4.75 2.85,-6.39 1.86,-0.88 5.8,-2.52 7.83,-0.95 5.88,4.53 -6.72,8.56 -10.67,7.34zm-9.91 -31.17c-3.91,-8.04 8.48,-6.88 10.67,-5.56 2.5,1.5 2.1,5.3 -1.29,6.01 -2.38,0.5 -7.28,0.01 -9.38,-0.45zm21.57 0.56c-3.82,0 -6.2,-2.88 -3.84,-5.61 1.51,-1.75 6.23,-1.05 8.91,-1.05 0,-18.64 1.7,-18.61 -3.73,-20.01l-28.3 -7.36 0.03 112.8 32 8.39 -0 -87.16 -5.08 0z"/>
   <path class="fil2" d="M163.38 158c-1.34,-3.59 -0.95,-6.03 4.04,-6.03 5.11,0 9.7,-0.72 7.77,5.95 -3.78,1.31 -8.02,0.8 -11.82,0.08zm3.09 -37.51c2.85,-2.23 6.16,0.23 4.48,3.83 -2.96,6.36 -14.15,7.57 -10.7,0.97 0.8,-1.52 5.25,-4.05 6.22,-4.81zm7.38 -5.79c-4.06,1.7 -5,0.33 -6.16,-3.51 -0.84,-2.78 -3.2,-5.52 -0.65,-7.75 4.46,-3.91 8.63,6.16 6.81,11.26zm-20.86 -18.64c1.74,-0.53 6.53,-0.25 8.37,0.52 2.99,1.25 2.79,4.76 0.14,5.85 -1.37,0.56 -8.13,0.25 -9.45,-0.4 -2.88,-1.42 -2.45,-4.94 0.94,-5.97zm2.39 62.3c-1.84,0.95 -4.25,0.52 -6.35,0.52l0 30.73 31.72 -8.29 -0.07 -112.94 -28.5 7.47c-2.26,0.58 -2.27,0.2 -3.46,1.97l0 47.11c3.32,0 6.75,-0.12 6.51,3.57 -0.21,3.3 -3.25,3.1 -6.52,3.1l0.09 20.38c2.55,0 6.42,-0.71 8.19,1.06 2.35,2.35 0.34,4.53 -1.61,5.32z"/>
   <path class="fil0" d="M208.59 155.22c1.29,-2.65 4.37,-3.36 2.78,-7.06 -3.3,-4.21 -6,0.84 -8.41,2.06 -3.11,-2.33 -2.59,-4.3 -7.77,-3.33 -2.1,5.46 -0,4.62 2.78,8.33 -1.1,2.17 -2.15,2.17 -3.18,3.96 -1.17,2.06 -0.62,3.16 1.19,4.44 3.22,1.53 5.31,-1.75 6.98,-3.25 1.76,1.04 4.82,5.86 7.95,2.78 3.2,-3.16 -2.44,-6.18 -2.31,-7.93z"/>
   <path class="fil0" d="M91.96 99.89c-1.49,-3.31 1.14,-3.43 2.1,-5.45 1.23,-2.58 -0.64,-4.81 -3.29,-4.55 -2.27,0.23 -3.39,2.54 -5.43,3.71 -1.41,-1.14 -4.74,-6.13 -7.74,-2.78 -2.68,2.99 1.89,6.08 3.14,6.99 -1.35,3.28 -4.43,3.77 -3.65,7.37 2.42,5.05 6.42,-0.25 8.49,-1.59 3.68,1.64 3.57,4.74 6.58,3.66 5.06,-1.82 0.04,-6.83 -0.2,-7.36z"/>
   <path class="fil0" d="M115.4 101.93c2.1,0.46 7,0.95 9.38,0.45 3.39,-0.71 3.79,-4.51 1.29,-6.01 -2.19,-1.32 -14.58,-2.48 -10.67,5.56z"/>
   <path class="fil0" d="M139.03 152.69c-0.6,-0.2 -8.25,-1.64 -9.05,-1.59 -2.64,0.17 -4.21,3.38 -2.07,5.54 2.81,2.84 14.89,4.15 11.12,-3.95z"/>
   <path class="fil0" d="M152.99 96.06c-3.39,1.03 -3.82,4.55 -0.94,5.97 1.32,0.65 8.08,0.96 9.45,0.4 2.65,-1.09 2.85,-4.6 -0.14,-5.85 -1.84,-0.77 -6.63,-1.05 -8.37,-0.52z"/>
   <path class="fil0" d="M163.38 158c3.79,0.72 8.04,1.23 11.82,-0.08 1.92,-6.67 -2.66,-5.95 -7.77,-5.95 -4.99,0 -5.39,2.44 -4.04,6.03z"/>
   <path class="fil0" d="M173.85 114.7c1.82,-5.1 -2.35,-15.17 -6.81,-11.26 -2.55,2.23 -0.19,4.97 0.65,7.75 1.16,3.83 2.1,5.21 6.16,3.51z"/>
   <path class="fil0" d="M120.95 149.51l4.14 -0.34c1,-2.38 1.31,-13.71 -3.66,-12.59 -4.97,1.12 -2.71,9.63 -0.48,12.92z"/>
   <path class="fil0" d="M166.47 120.49c-0.97,0.76 -5.42,3.28 -6.22,4.81 -3.45,6.59 7.74,5.39 10.7,-0.97 1.67,-3.6 -1.63,-6.06 -4.48,-3.83z"/>
   <path class="fil0" d="M125.31 133.1c3.96,1.22 16.55,-2.81 10.67,-7.34 -2.03,-1.57 -5.97,0.08 -7.83,0.95 -3.48,1.64 -4.37,2.63 -2.85,6.39z"/>
   <path class="fil0" d="M149.03 189.61l0 -30.73c2.1,0 4.51,0.43 6.35,-0.52l-6.83 0.19 0.48 31.05z"/>
  </g>
 </g>
</svg>
