<?xml version="1.0" encoding="UTF-8"?>
<!DOCTYPE svg PUBLIC "-//W3C//DTD SVG 1.1//EN" "http://www.w3.org/Graphics/SVG/1.1/DTD/svg11.dtd">
<!-- Creator: CorelDRAW 2019 (64-Bit) -->
<svg xmlns="http://www.w3.org/2000/svg" xml:space="preserve" width="8.26772in" height="8.71437in" version="1.1" style="shape-rendering:geometricPrecision; text-rendering:geometricPrecision; image-rendering:optimizeQuality; fill-rule:evenodd; clip-rule:evenodd"
viewBox="0 0 248.31 261.73"
 xmlns:xlink="http://www.w3.org/1999/xlink"
 xmlns:xodm="http://www.corel.com/coreldraw/odm/2003">
 <defs>
  <style type="text/css">
   <![CDATA[
    .fil1 {fill:#FEFEFE}
    .fil2 {fill:#2B2A29}
    .fil0 {fill:#2B2A29}
    .fil3 {fill:#E31E24}
   ]]>
  </style>
 </defs>
 <g id="Layer_x0020_2">
  <metadata id="CorelCorpID_0Corel-Layer"/>
  <path class="fil0" d="M124.32 234.63c76.37,-36.41 97.21,-97.62 98.88,-177.83l-97.45 -30.85 -0.47 -0.17c-0.1,-0.03 -0.19,-0.07 -0.29,-0.11 -0.37,0.12 -0.73,0.25 -1.09,0.36 -32.91,10.6 -65.93,20.85 -98.88,31.35 -0.98,81.28 22.45,145.27 99.3,177.25zm-114.61 -198.61c36.05,-11.53 70.47,-22.25 106.52,-33.78 9.01,-2.99 9.24,-2.97 17.55,0.03l106.56 33.74c0,0 7.63,2.01 7.98,12.12 -0.35,86.01 -19.38,169.22 -123.27,213.61 -82.13,-29.85 -128.65,-93.63 -124.82,-213.65 0.41,-6.91 1.81,-10.1 9.5,-12.06z"/>
  <path class="fil1" d="M124.32 234.63c76.37,-36.41 97.21,-97.62 98.88,-177.83l-97.45 -30.85 -0.47 -0.17c-0.1,-0.03 -0.19,-0.07 -0.29,-0.11 -0.37,0.12 -0.73,0.25 -1.09,0.36 -32.91,10.6 -65.93,20.85 -98.88,31.35 -0.98,81.28 22.45,145.27 99.3,177.25z"/>
  <path class="fil2" d="M42.72 70.27c1.38,63.92 20.17,116.26 81.13,144.86 60.04,-31.59 78.01,-81.17 81.24,-145.55l-80.11 -25.36c-27.39,8.8 -54.84,17.36 -82.26,26.05z"/>
  <path class="fil3" d="M65.11 85.88c3.38,44.7 17.76,81.62 58.24,104.66 40.18,-24.85 54.45,-60.29 58.94,-105.49l-58.75 -18.13c-19.95,6.38 -38.45,12.66 -58.43,18.96z"/>
  <path class="fil1" d="M73.03 128.73c8.33,25.46 23.76,46.66 50.4,61.83 0.04,-0.02 0.07,-0.05 0.11,-0.07l0 -61.76 49.81 -0.02c4.62,-13.35 7.37,-27.91 8.94,-43.67l-58.75 -18.13 0 61.81 -50.51 0z"/>
 </g>
</svg>
