<?xml version="1.0" encoding="UTF-8"?>
<!DOCTYPE svg PUBLIC "-//W3C//DTD SVG 1.1//EN" "http://www.w3.org/Graphics/SVG/1.1/DTD/svg11.dtd">
<!-- Creator: CorelDRAW 2019 (64-Bit) -->
<svg xmlns="http://www.w3.org/2000/svg" xml:space="preserve" width="8.26772in" height="8.71437in" version="1.1" style="shape-rendering:geometricPrecision; text-rendering:geometricPrecision; image-rendering:optimizeQuality; fill-rule:evenodd; clip-rule:evenodd"
viewBox="0 0 248.23 261.64"
 xmlns:xlink="http://www.w3.org/1999/xlink"
 xmlns:xodm="http://www.corel.com/coreldraw/odm/2003">
 <defs>
  <style type="text/css">
   <![CDATA[
    .fil1 {fill:#FEFEFE}
    .fil2 {fill:#2B2A29}
    .fil0 {fill:#2B2A29}
    .fil3 {fill:#76747F}
    .fil4 {fill:#B28379}
   ]]>
  </style>
 </defs>
 <g id="Layer_x0020_2">
  <metadata id="CorelCorpID_0Corel-Layer"/>
  <path class="fil0" d="M124.28 234.55c76.34,-36.4 97.18,-97.59 98.85,-177.77l-97.42 -30.84 -0.47 -0.17c-0.1,-0.03 -0.19,-0.07 -0.29,-0.11 -0.37,0.12 -0.73,0.25 -1.09,0.36 -32.9,10.6 -65.91,20.84 -98.85,31.34 -0.98,81.25 22.44,145.22 99.27,177.19zm-114.57 -198.55c36.04,-11.53 70.44,-22.24 106.48,-33.77 9.01,-2.98 9.23,-2.97 17.54,0.03l106.52 33.73c0,0 7.62,2 7.97,12.12 -0.35,85.98 -19.37,169.16 -123.23,213.54 -82.11,-29.84 -128.61,-93.6 -124.78,-213.58 0.41,-6.91 1.81,-10.1 9.49,-12.06z"/>
  <path class="fil1" d="M124.28 234.55c76.34,-36.4 97.18,-97.59 98.85,-177.77l-97.42 -30.84 -0.47 -0.17c-0.1,-0.03 -0.19,-0.07 -0.29,-0.11 -0.37,0.12 -0.73,0.25 -1.09,0.36 -32.9,10.6 -65.91,20.84 -98.85,31.34 -0.98,81.25 22.44,145.22 99.27,177.19z"/>
  <path class="fil2" d="M42.71 70.25c1.38,63.9 20.16,116.22 81.1,144.81 60.02,-31.57 77.98,-81.14 81.22,-145.5l-80.08 -25.36c-27.38,8.79 -54.83,17.36 -82.24,26.04z"/>
  <path class="fil3" d="M65.08 85.85c3.38,44.68 17.76,81.6 58.22,104.63 40.17,-24.84 54.43,-60.27 58.92,-105.46l-58.73 -18.12c-19.95,6.38 -38.44,12.65 -58.41,18.95z"/>
  <path class="fil4" d="M73 128.68c8.33,25.45 23.75,46.65 50.39,61.81 0.04,-0.02 0.07,-0.05 0.11,-0.07l0 -61.74 49.79 -0.02c4.62,-13.34 7.37,-27.9 8.94,-43.65l-58.73 -18.12 0 61.79 -50.5 0z"/>
 </g>
</svg>
