<?xml version="1.0" encoding="UTF-8"?>
<!DOCTYPE svg PUBLIC "-//W3C//DTD SVG 1.1//EN" "http://www.w3.org/Graphics/SVG/1.1/DTD/svg11.dtd">
<!-- Creator: CorelDRAW 2019 (64-Bit) -->
<svg xmlns="http://www.w3.org/2000/svg" xml:space="preserve" width="8.26772in" height="8.71437in" version="1.1" style="shape-rendering:geometricPrecision; text-rendering:geometricPrecision; image-rendering:optimizeQuality; fill-rule:evenodd; clip-rule:evenodd"
viewBox="0 0 266.4 280.79"
 xmlns:xlink="http://www.w3.org/1999/xlink"
 xmlns:xodm="http://www.corel.com/coreldraw/odm/2003">
 <defs>
  <style type="text/css">
   <![CDATA[
    .fil1 {fill:#FEFEFE}
    .fil2 {fill:#2B2A29}
    .fil0 {fill:#2B2A29}
    .fil4 {fill:#D7B56D}
    .fil3 {fill:#E31E24}
   ]]>
  </style>
 </defs>
 <g id="Layer_x0020_2">
  <metadata id="CorelCorpID_0Corel-Layer"/>
  <path class="fil0" d="M133.38 251.71c81.93,-39.06 104.29,-104.73 106.08,-190.78l-104.55 -33.1 -0.51 -0.18c-0.1,-0.04 -0.21,-0.08 -0.31,-0.11 -0.4,0.13 -0.79,0.26 -1.17,0.39 -35.31,11.38 -70.74,22.37 -106.08,33.63 -1.05,87.2 24.08,155.84 106.53,190.16zm-122.95 -213.08c38.68,-12.37 75.6,-23.87 114.27,-36.24 9.67,-3.2 9.91,-3.19 18.83,0.04l114.32 36.19c0,0 8.18,2.15 8.56,13 -0.38,92.27 -20.79,181.54 -132.25,229.17 -88.11,-32.02 -138.02,-100.45 -133.91,-229.21 0.44,-7.42 1.94,-10.84 10.19,-12.94z"/>
  <path class="fil1" d="M133.38 251.71c81.93,-39.06 104.29,-104.73 106.08,-190.78l-104.55 -33.1 -0.51 -0.18c-0.1,-0.04 -0.21,-0.08 -0.31,-0.11 -0.4,0.13 -0.79,0.26 -1.17,0.39 -35.31,11.38 -70.74,22.37 -106.08,33.63 -1.05,87.2 24.08,155.84 106.53,190.16z"/>
  <path class="fil2" d="M45.84 75.39c1.48,68.58 21.63,124.73 87.04,155.41 64.42,-33.89 83.69,-87.08 87.16,-156.14l-85.94 -27.21c-29.38,9.44 -58.84,18.63 -88.25,27.95z"/>
  <path class="fil3" d="M69.85 92.13c3.63,47.95 19.06,87.57 62.48,112.28 43.11,-26.66 58.42,-64.68 63.23,-113.18l-63.02 -19.45c-21.41,6.85 -41.25,13.58 -62.69,20.34z"/>
  <path class="fil4" d="M78.34 138.1c8.94,27.31 25.49,50.06 54.07,66.33 0.04,-0.02 0.08,-0.05 0.12,-0.07l0 -66.26 53.43 -0.02c4.96,-14.32 7.91,-29.95 9.59,-46.85l-63.02 -19.45 0 66.31 -54.19 0z"/>
 </g>
</svg>
