<?xml version="1.0" encoding="UTF-8"?>
<!DOCTYPE svg PUBLIC "-//W3C//DTD SVG 1.1//EN" "http://www.w3.org/Graphics/SVG/1.1/DTD/svg11.dtd">
<!-- Creator: CorelDRAW 2019 (64-Bit) -->
<svg xmlns="http://www.w3.org/2000/svg" xml:space="preserve" width="8.26772in" height="8.71437in" version="1.1" style="shape-rendering:geometricPrecision; text-rendering:geometricPrecision; image-rendering:optimizeQuality; fill-rule:evenodd; clip-rule:evenodd"
viewBox="0 0 266.9 281.32"
 xmlns:xlink="http://www.w3.org/1999/xlink"
 xmlns:xodm="http://www.corel.com/coreldraw/odm/2003">
 <defs>
  <style type="text/css">
   <![CDATA[
    .fil1 {fill:#FEFEFE}
    .fil2 {fill:#2B2A29}
    .fil0 {fill:#2B2A29}
    .fil3 {fill:#B72F0F}
   ]]>
  </style>
 </defs>
 <g id="Layer_x0020_2">
  <metadata id="CorelCorpID_0Corel-Layer"/>
  <path class="fil0" d="M133.63 252.19c82.08,-39.14 104.48,-104.93 106.28,-191.13l-104.74 -33.16 -0.51 -0.18c-0.1,-0.04 -0.21,-0.08 -0.31,-0.11 -0.4,0.13 -0.79,0.26 -1.17,0.39 -35.37,11.4 -70.87,22.41 -106.28,33.69 -1.05,87.36 24.13,156.14 106.73,190.52zm-123.18 -213.48c38.75,-12.4 75.74,-23.92 114.49,-36.31 9.69,-3.21 9.93,-3.19 18.86,0.04l114.53 36.26c0,0 8.2,2.16 8.57,13.03 -0.38,92.45 -20.83,181.88 -132.5,229.6 -88.28,-32.08 -138.28,-100.64 -134.16,-229.64 0.44,-7.43 1.94,-10.86 10.21,-12.97z"/>
  <path class="fil1" d="M133.63 252.19c82.08,-39.14 104.48,-104.93 106.28,-191.13l-104.74 -33.16 -0.51 -0.18c-0.1,-0.04 -0.21,-0.08 -0.31,-0.11 -0.4,0.13 -0.79,0.26 -1.17,0.39 -35.37,11.4 -70.87,22.41 -106.28,33.69 -1.05,87.36 24.13,156.14 106.73,190.52z"/>
  <path class="fil2" d="M122.64 182.31c0.08,0.43 0.33,1.12 0.56,1.53 0.52,0.92 1.18,1.32 2.24,1.36 5.24,0.22 10.74,0.03 16,-0.16 1.7,-0.18 2.84,-1.22 2.96,-2.97 0.18,-2.76 0.09,-5.79 0.08,-8.56 -0.03,-4.82 -0.1,-9.64 -0.17,-14.45 -0.13,-7.99 -0.28,-15.99 -0.47,-23.98l-0.08 -3.66 20.94 0 -1.35 57.52 -0.04 0.24c-0.39,2.44 -1.56,5.3 -2.83,7.38 -3,4.97 -7.63,8.06 -13.43,8.75 -1.75,0.21 -3.5,0.38 -5.26,0.53 -6.68,0.56 -13.57,0.84 -20.28,0.84l-0.29 0 -0.28 -0.05c-10.3,-1.67 -17.82,-7.15 -19.04,-17.93l-0.01 -0.1 -0.94 -17.01 21.7 1.67 0 9.05zm60.67 -40.8c0.43,-0.08 1.11,-0.33 1.52,-0.56 0.92,-0.52 1.32,-1.18 1.36,-2.24 0.22,-5.24 0.03,-10.74 -0.15,-16 -0.18,-1.7 -1.22,-2.84 -2.97,-2.96 -2.76,-0.18 -5.79,-0.1 -8.56,-0.08 -4.82,0.03 -9.64,0.1 -14.45,0.17 -7.99,0.13 -15.99,0.28 -23.98,0.47l-3.66 0.08 0 -20.94 57.52 1.35 0.24 0.04c2.44,0.39 5.3,1.57 7.38,2.83 4.97,3 8.06,7.63 8.75,13.43 0.21,1.75 0.38,3.5 0.53,5.26 0.56,6.68 0.84,13.57 0.84,20.28l0 0.29 -0.05 0.28c-1.67,10.3 -7.15,17.82 -17.93,19.04l-0.1 0.01 -17.01 0.94 1.67 -21.7 9.06 0zm-99.85 -20.91c-0.43,0.08 -1.12,0.33 -1.52,0.56 -0.92,0.52 -1.32,1.18 -1.36,2.24 -0.22,5.24 -0.03,10.74 0.15,16 0.18,1.7 1.22,2.84 2.97,2.96 2.76,0.18 5.79,0.09 8.56,0.08 4.82,-0.03 9.64,-0.1 14.45,-0.17 7.99,-0.13 15.99,-0.28 23.98,-0.47l3.66 -0.08 0 20.94 -57.52 -1.35 -0.24 -0.04c-2.44,-0.39 -5.3,-1.57 -7.38,-2.83 -4.97,-3 -8.06,-7.63 -8.75,-13.43 -0.21,-1.75 -0.38,-3.5 -0.53,-5.26 -0.56,-6.68 -0.84,-13.57 -0.84,-20.28l0 -0.29 0.05 -0.28c1.67,-10.3 7.14,-17.82 17.93,-19.04l0.1 -0.01 17.01 -0.94 -1.67 21.71 -9.05 -0zm59.54 -38.53c-0.08,-0.43 -0.33,-1.11 -0.56,-1.52 -0.52,-0.92 -1.18,-1.32 -2.24,-1.36 -5.23,-0.22 -10.75,-0.04 -16,0.15 -1.7,0.18 -2.84,1.22 -2.96,2.97 -0.18,2.76 -0.09,5.79 -0.08,8.56 0.03,4.82 0.1,9.64 0.17,14.45 0.13,7.99 0.28,15.99 0.47,23.98l0.08 3.66 -20.94 0 1.35 -57.52 0.04 -0.24c0.39,-2.44 1.56,-5.3 2.83,-7.38 3,-4.97 7.63,-8.06 13.43,-8.75 1.75,-0.21 3.5,-0.38 5.26,-0.53 6.68,-0.56 13.57,-0.84 20.28,-0.84l0.29 0 0.28 0.05c10.3,1.67 17.82,7.15 19.04,17.93l0.01 0.1 0.94 17.01 -21.7 -1.67 0 -9.05z"/>
  <path class="fil3" d="M104.73 175.47l14.33 1.1 0 5.98c0,0 0.63,5.99 6.22,6.22 5.59,0.24 16.38,-0.16 16.38,-0.16 0,0 5.91,-0.39 6.3,-6.3 0.39,-5.9 -0.55,-47.32 -0.55,-47.32l13.62 0 -1.26 53.62c0,0 -1.89,11.81 -13.15,13.15 -11.26,1.34 -25.12,1.34 -25.12,1.34 -9.97,-1.62 -15.14,-6.69 -16.06,-14.8l-0.71 -12.83zm71.73 -16.05l1.1 -14.33 5.99 0c0,0 5.99,-0.63 6.22,-6.22 0.24,-5.59 -0.16,-16.37 -0.16,-16.37 0,0 -0.4,-5.9 -6.3,-6.3 -5.9,-0.39 -47.32,0.55 -47.32,0.55l0 -13.62 53.62 1.26c0,0 11.81,1.89 13.15,13.15 1.34,11.26 1.34,25.12 1.34,25.12 -1.61,9.97 -6.69,15.14 -14.8,16.06l-12.83 0.71zm-86.16 -56.72l-1.1 14.33 -5.98 -0c0,0 -5.99,0.63 -6.22,6.22 -0.24,5.59 0.16,16.38 0.16,16.38 0,0 0.39,5.91 6.3,6.3 5.9,0.39 47.32,-0.55 47.32,-0.55l0 13.62 -53.62 -1.26c0,0 -11.81,-1.89 -13.15,-13.15 -1.34,-11.26 -1.34,-25.12 -1.34,-25.12 1.61,-9.97 6.68,-15.14 14.8,-16.06l12.83 -0.71zm70.6 -13.78l-14.33 -1.1 0 -5.98c0,0 -0.63,-5.99 -6.22,-6.22 -5.59,-0.24 -16.38,0.16 -16.38,0.16 0,0 -5.9,0.39 -6.3,6.3 -0.39,5.9 0.55,47.32 0.55,47.32l-13.62 0 1.26 -53.62c0,0 1.89,-11.81 13.15,-13.15 11.26,-1.34 25.12,-1.34 25.12,-1.34 9.97,1.62 15.14,6.69 16.06,14.8l0.71 12.83z"/>
 </g>
</svg>
