<?xml version="1.0" encoding="UTF-8"?>
<!DOCTYPE svg PUBLIC "-//W3C//DTD SVG 1.1//EN" "http://www.w3.org/Graphics/SVG/1.1/DTD/svg11.dtd">
<!-- Creator: CorelDRAW 2019 (64-Bit) -->
<svg xmlns="http://www.w3.org/2000/svg" xml:space="preserve" width="8.26772in" height="8.71437in" version="1.1" style="shape-rendering:geometricPrecision; text-rendering:geometricPrecision; image-rendering:optimizeQuality; fill-rule:evenodd; clip-rule:evenodd"
viewBox="0 0 266.38 280.77"
 xmlns:xlink="http://www.w3.org/1999/xlink"
 xmlns:xodm="http://www.corel.com/coreldraw/odm/2003">
 <defs>
  <style type="text/css">
   <![CDATA[
    .fil1 {fill:#FEFEFE}
    .fil2 {fill:#2B2A29}
    .fil0 {fill:#2B2A29}
    .fil3 {fill:#383E54}
    .fil4 {fill:#E6A468}
   ]]>
  </style>
 </defs>
 <g id="Layer_x0020_2">
  <metadata id="CorelCorpID_0Corel-Layer"/>
  <path class="fil0" d="M133.37 251.7c81.92,-39.06 104.28,-104.72 106.07,-190.76l-104.54 -33.1 -0.51 -0.18c-0.1,-0.04 -0.21,-0.08 -0.31,-0.11 -0.4,0.13 -0.79,0.26 -1.17,0.38 -35.31,11.37 -70.73,22.37 -106.07,33.63 -1.05,87.19 24.08,155.83 106.53,190.15zm-122.94 -213.06c38.67,-12.37 75.59,-23.87 114.27,-36.24 9.67,-3.2 9.91,-3.19 18.82,0.04l114.31 36.19c0,0 8.18,2.15 8.56,13 -0.38,92.27 -20.79,181.53 -132.24,229.15 -88.11,-32.02 -138.01,-100.44 -133.9,-229.19 0.44,-7.42 1.94,-10.84 10.19,-12.94z"/>
  <path class="fil1" d="M133.37 251.7c81.92,-39.06 104.28,-104.72 106.07,-190.76l-104.54 -33.1 -0.51 -0.18c-0.1,-0.04 -0.21,-0.08 -0.31,-0.11 -0.4,0.13 -0.79,0.26 -1.17,0.38 -35.31,11.37 -70.73,22.37 -106.07,33.63 -1.05,87.19 24.08,155.83 106.53,190.15z"/>
  <path class="fil2" d="M45.83 75.38c1.48,68.57 21.63,124.72 87.03,155.4 64.41,-33.88 83.68,-87.07 87.15,-156.13l-85.94 -27.21c-29.38,9.44 -58.83,18.63 -88.25,27.95z"/>
  <path class="fil3" d="M69.84 92.12c3.63,47.95 19.05,87.56 62.47,112.27 43.11,-26.66 58.41,-64.67 63.23,-113.17l-63.02 -19.45c-21.41,6.85 -41.25,13.58 -62.68,20.34z"/>
  <path class="fil4" d="M78.34 138.09c8.94,27.31 25.49,50.06 54.07,66.32 0.04,-0.02 0.08,-0.05 0.12,-0.07l0 -66.25 53.43 -0.02c4.96,-14.32 7.91,-29.94 9.59,-46.84l-63.02 -19.45 0 66.31 -54.19 0z"/>
 </g>
</svg>
