<?xml version="1.0" encoding="UTF-8"?>
<!DOCTYPE svg PUBLIC "-//W3C//DTD SVG 1.1//EN" "http://www.w3.org/Graphics/SVG/1.1/DTD/svg11.dtd">
<!-- Creator: CorelDRAW 2019 (64-Bit) -->
<svg xmlns="http://www.w3.org/2000/svg" xml:space="preserve" width="8.26772in" height="8.71437in" version="1.1" style="shape-rendering:geometricPrecision; text-rendering:geometricPrecision; image-rendering:optimizeQuality; fill-rule:evenodd; clip-rule:evenodd"
viewBox="0 0 248.3 261.72"
 xmlns:xlink="http://www.w3.org/1999/xlink"
 xmlns:xodm="http://www.corel.com/coreldraw/odm/2003">
 <defs>
  <style type="text/css">
   <![CDATA[
    .fil1 {fill:#FEFEFE}
    .fil0 {fill:#2B2A29}
    .fil3 {fill:black}
    .fil2 {fill:#B8AFA8}
   ]]>
  </style>
 </defs>
 <g id="Layer_x0020_2">
  <metadata id="CorelCorpID_0Corel-Layer"/>
  <path class="fil0" d="M124.32 234.62c76.36,-36.41 97.2,-97.62 98.88,-177.82l-97.45 -30.85 -0.47 -0.17c-0.1,-0.03 -0.19,-0.07 -0.29,-0.11 -0.37,0.12 -0.73,0.25 -1.09,0.36 -32.91,10.6 -65.93,20.85 -98.88,31.34 -0.98,81.28 22.44,145.26 99.3,177.25zm-114.6 -198.61c36.05,-11.53 70.46,-22.25 106.51,-33.78 9.01,-2.99 9.24,-2.97 17.55,0.03l106.55 33.74c0,0 7.63,2.01 7.98,12.12 -0.35,86.01 -19.38,169.21 -123.27,213.6 -82.13,-29.85 -128.65,-93.63 -124.82,-213.64 0.41,-6.91 1.81,-10.1 9.5,-12.06z"/>
  <path class="fil1" d="M124.32 234.62c76.36,-36.41 97.2,-97.62 98.88,-177.82l-97.45 -30.85 -0.47 -0.17c-0.1,-0.03 -0.19,-0.07 -0.29,-0.11 -0.37,0.12 -0.73,0.25 -1.09,0.36 -32.91,10.6 -65.93,20.85 -98.88,31.34 -0.98,81.28 22.44,145.26 99.3,177.25z"/>
  <g id="_1528173616928">
   <path class="fil2" d="M152.68 168.13c-0.76,-3.64 4.53,-4.96 5.43,-1.43 1.1,4.28 -4.81,4.39 -5.43,1.43zm-62.66 0c-0.54,-4.1 4.63,-4.65 5.45,-1.33 0.9,3.61 -4.98,4.88 -5.45,1.33zm76.92 -17.09c-0.6,-4.02 4.61,-4.7 5.46,-1.33 0.89,3.54 -4.93,4.91 -5.46,1.33zm-91.16 0c-0.78,-3.54 4.44,-4.98 5.39,-1.41 1.11,4.19 -4.74,4.34 -5.39,1.41zm98.08 -21c-5.69,-6.75 8.72,-6.73 3.02,0.17l-3.02 -0.17zm-99.56 -0.01c-4.64,1.01 -5.07,-2.42 -2.98,-4.97 2.82,-0.63 2.43,-0.27 3.97,0.99 0.57,2.6 0.25,2.52 -0.99,3.98zm2.28 37.83c0.31,0.19 0.21,0.04 0.77,0.61 1.73,1.75 2.78,4.03 6.18,7.09 30.48,27.41 95.29,17.97 97.36,-39.45 0.59,-16.28 -4.01,-30.2 -12.33,-43.44 -1.03,-1.65 -0.59,-1.51 -1.94,-2.14 -2.3,-1.51 -6.85,-1.13 -9.64,-0.58 3.93,11.41 10.43,22.96 9.76,37.61 -1.58,34.5 -42.39,51.81 -69.85,30.36 -2.63,-2.05 -10.05,-9.63 -10.47,-13.49 -3.63,-2.95 -5.21,-13.68 -5.03,-19.57 0.38,-12.18 6.2,-27.17 11.28,-37.82 3.65,-7.66 2.97,-13.31 2.97,-22.27l-22.91 -0.02 0.03 11.55c4.91,-0 15.19,-1.01 16.64,1.59 1.73,3.1 -6.18,8.08 -11.69,17.71 -10.61,18.56 -14.25,41.05 -6.26,61.61 1.42,3.66 4.33,7.83 5.12,10.64zm80.4 -77.91c2.79,-0.56 7.34,-0.93 9.64,0.58 -1.98,-5.6 -10.15,-8.46 -7.35,-13.81 4.6,-1.14 10.94,-0.44 16.11,-0.44l0 -11.51 -22.88 -0.02c0.04,9.42 -0.13,19.28 4.49,25.21z"/>
   <path class="fil3" d="M70.99 167.89l5.6 -0.05c-0.79,-2.81 -3.7,-6.98 -5.12,-10.64 -7.99,-20.57 -4.35,-43.06 6.26,-61.61 5.51,-9.63 13.42,-14.62 11.69,-17.71 -1.45,-2.6 -11.73,-1.59 -16.64,-1.59l-0.03 -11.55 22.91 0.02c-0,8.96 0.68,14.61 -2.97,22.27 -5.08,10.65 -10.9,25.64 -11.28,37.82 -0.18,5.89 1.4,16.62 5.03,19.57 0.61,-2.8 -0.73,-13.64 0.73,-15.08l0 -0.62c-0.26,-16.08 5.22,-25.79 10.06,-38.22l0.45 -0.38c3.89,-12.93 3.6,-5.73 3.68,-22.95 0.02,-5.85 0.98,-8.07 -5.55,-8.03l-26.12 0.13c-3.64,0.75 -2.56,5.96 -2.56,10.04 -0,16.57 -0.99,11.18 13.02,12.79 -1.59,2.84 -3.86,5.27 -5.85,8.44 -5.95,9.49 -9.83,19.16 -11.83,30.84 -1.47,8.57 -1.25,18.03 0.3,26.33 1.07,5.74 4.74,17.8 8.22,20.17zm79.99 -76.69c1.4,0.93 5.69,13.57 6.72,16.6 2.32,6.86 3.49,12.93 3.33,20.9l-0.03 0.33c-0.73,5.46 -1.82,9.44 -4.14,13.64 -2.44,4.41 -4.59,6.44 -7.62,9.47 -5.77,5.76 -14.35,8.62 -24.72,9.64l-0.3 0c-11.05,-0.95 -18.9,-3.59 -25.29,-9.59 -6.09,-5.71 -10.13,-11.52 -11.75,-22.85 -1.46,1.44 -0.11,12.28 -0.73,15.08 0.42,3.86 7.84,11.43 10.47,13.49 27.46,21.46 68.26,4.15 69.85,-30.36 0.67,-14.65 -5.83,-26.2 -9.76,-37.61 -4.61,-5.93 -4.44,-15.79 -4.49,-25.21l22.88 0.02 -0 11.51c-5.17,0 -11.51,-0.7 -16.11,0.44 -2.8,5.35 5.37,8.21 7.35,13.81 1.35,0.63 0.91,0.49 1.94,2.14 8.31,13.25 12.92,27.17 12.33,43.44 -2.07,57.42 -66.88,66.86 -97.36,39.45 -3.4,-3.06 -4.45,-5.34 -6.18,-7.09 -0.56,-0.57 -0.46,-0.42 -0.77,-0.61l-5.6 0.05c0.75,5.97 14.53,16.72 20.75,20.3 23.9,13.76 64.75,9.26 82.15,-14.61 0.82,-1.12 1.53,-1.92 2.31,-3.05 0.38,-0.56 0.65,-1.12 1.01,-1.63 0.63,-0.91 0.3,-0.6 0.73,-0.77l0.54 -0.92c1.96,-5.48 4.79,-9.71 6.34,-16.87 1.44,-6.68 2.24,-14.1 1.77,-21.47l0 -0c-0.39,-6.67 -2.08,-15.2 -4.31,-21.06 -2.61,-6.86 -5.43,-11.48 -8.16,-17.26l-6.15 -8.54c7.76,-0.38 13.14,2.54 13.11,-5.72 -0.07,-20.44 3.13,-17.12 -17.98,-17.1 -18.22,0.02 -17.36,-3.03 -16.05,18.17 0.41,6.63 2.46,8.83 3.95,13.86z"/>
   <path class="fil3" d="M90.02 168.13c0.47,3.55 6.35,2.28 5.45,-1.33 -0.82,-3.32 -6,-2.77 -5.45,1.33z"/>
   <path class="fil3" d="M152.68 168.13c0.62,2.97 6.53,2.86 5.43,-1.43 -0.9,-3.53 -6.19,-2.21 -5.43,1.43z"/>
   <path class="fil3" d="M166.94 151.04c0.53,3.58 6.35,2.21 5.46,-1.33 -0.85,-3.37 -6.06,-2.69 -5.46,1.33z"/>
   <path class="fil3" d="M75.78 151.04c0.65,2.93 6.5,2.78 5.39,-1.41 -0.95,-3.57 -6.18,-2.13 -5.39,1.41z"/>
   <path class="fil3" d="M173.86 130.03l3.02 0.17c5.7,-6.91 -8.71,-6.93 -3.02,-0.17z"/>
   <path class="fil3" d="M74.3 130.02c1.24,-1.46 1.56,-1.38 0.99,-3.98 -1.54,-1.26 -1.15,-1.61 -3.97,-0.99 -2.09,2.54 -1.65,5.98 2.98,4.97z"/>
  </g>
 </g>
</svg>
