<?xml version="1.0" encoding="UTF-8"?>
<!DOCTYPE svg PUBLIC "-//W3C//DTD SVG 1.1//EN" "http://www.w3.org/Graphics/SVG/1.1/DTD/svg11.dtd">
<!-- Creator: CorelDRAW 2019 (64-Bit) -->
<svg xmlns="http://www.w3.org/2000/svg" xml:space="preserve" width="8.26772in" height="8.71437in" version="1.1" style="shape-rendering:geometricPrecision; text-rendering:geometricPrecision; image-rendering:optimizeQuality; fill-rule:evenodd; clip-rule:evenodd"
viewBox="0 0 248.65 262.08"
 xmlns:xlink="http://www.w3.org/1999/xlink"
 xmlns:xodm="http://www.corel.com/coreldraw/odm/2003">
 <defs>
  <style type="text/css">
   <![CDATA[
    .fil1 {fill:#FEFEFE}
    .fil0 {fill:#2B2A29}
    .fil2 {fill:black}
    .fil3 {fill:#76747F}
    .fil5 {fill:#B72F0F}
    .fil4 {fill:#B8AFA8}
    .fil6 {fill:#E1E1E3}
   ]]>
  </style>
 </defs>
 <g id="Layer_x0020_2">
  <metadata id="CorelCorpID_0Corel-Layer"/>
  <path class="fil0" d="M124.49 234.95c76.47,-36.46 97.34,-97.75 99.01,-178.07l-97.58 -30.9 -0.48 -0.17c-0.1,-0.03 -0.19,-0.07 -0.29,-0.11 -0.37,0.12 -0.73,0.25 -1.09,0.36 -32.96,10.62 -66.02,20.88 -99.01,31.39 -0.98,81.39 22.48,145.46 99.44,177.49zm-114.76 -198.88c36.1,-11.55 70.56,-22.28 106.66,-33.83 9.02,-2.99 9.25,-2.98 17.57,0.03l106.7 33.78c0,0 7.64,2.01 7.99,12.14 -0.35,86.13 -19.4,169.45 -123.44,213.9 -82.24,-29.89 -128.83,-93.76 -124.99,-213.94 0.41,-6.92 1.81,-10.11 9.51,-12.08z"/>
  <path class="fil1" d="M124.49 234.95c76.47,-36.46 97.34,-97.75 99.01,-178.07l-97.58 -30.9 -0.48 -0.17c-0.1,-0.03 -0.19,-0.07 -0.29,-0.11 -0.37,0.12 -0.73,0.25 -1.09,0.36 -32.96,10.62 -66.02,20.88 -99.01,31.39 -0.98,81.39 22.48,145.46 99.44,177.49z"/>
  <g id="_1528167590192">
   <path class="fil2" d="M102.66 195.46l9.97 -26.43 9.95 3.47 0.13 33.92c-3.39,-1.69 -6.67,-3.4 -10.15,-5.34 -2.68,-1.5 -7.55,-3.6 -9.9,-5.61zm25.09 10.88l-0.02 -33.61 10.18 -4.01c1.58,2.17 4.63,10.64 5.63,13.27 1.73,4.52 3.85,9.24 4.97,13.57 -5.46,1.99 -14.52,8.38 -20.76,10.79zm-29.99 -13.39l-10.04 -5.26 4.58 -26.36 15.44 5.65c-0.27,3.62 -8.16,23.66 -9.98,25.97zm59.05 -31.18l1.08 -0.61 0.61 1.13 4.36 25.26c-3.05,1.75 -6.52,3.93 -9.9,5.11l-9.96 -25.47c2.7,-1.89 10.56,-4.52 13.81,-5.43zm2.12 -21.83c1.42,1.83 0.69,10.52 0.92,14.78l-1.29 1.29c-6.37,1.29 -30.33,12.32 -34.28,11.74 -3.89,-0.57 -25.95,-10.22 -33.29,-12.15l0.26 -15.49c2.17,-0.85 31.59,-5.25 34.17,-5.19 4.26,0.11 29.66,3.83 33.52,5.02zm-31.27 -40.45c7.56,0.83 16.28,7.15 20.03,11.13 5.09,5.41 8.08,13.68 8.23,23.76l-28.25 -4.4 0 -30.48zm-33.12 34.77c0.01,-10.41 2.96,-17.96 8.13,-23.52 4.54,-4.88 11.64,-9.63 20.04,-11.33l0.01 30.75 -28.18 4.09zm27.35 -40.04c0.02,-3.79 -0.17,-3.82 1.57,-6.1 5.47,-1.05 5.35,1.6 5.36,5.95l-6.92 0.14zm-0.33 -10.87c-1.94,-5.24 -3.74,-7.23 -4.31,-14 -1.59,-18.9 15.95,-26.32 27.81,-13.42 5.12,5.57 9.88,15.7 19.31,16.93 13.72,1.79 20.17,-11.67 22.44,-13.73 6.93,15.25 -4.86,33.36 -16.85,35.84 -8.8,1.82 -12.58,-7 -17.34,-10.38 -9.28,-6.58 -15.63,-0.59 -20.84,1.4 -3.52,-3.28 -4.3,-3.52 -10.22,-2.64zm-4.61 12.85c-16.35,5.44 -27.35,17.42 -27.35,38.56 -4.42,2.07 -3.55,0.42 -3.54,11.95 0,2.61 -0.1,5.37 -0.04,7.95 0.11,5.03 1.57,2.83 1.19,7.11 -0.56,6.33 -5.5,23.44 -4.5,28.44 0.68,1.22 41.13,22.91 42.65,22.85 1.91,-0.08 40.23,-21.14 42.58,-23.17 0.35,-4.79 -3.62,-21.09 -4.6,-27.08 -0.84,-5.08 0.28,-2.64 0.88,-6.27l0.15 -16.47c-0.05,-3.58 -0.23,-4.29 -3.51,-4.89 -0.01,-10.53 -2.5,-18.61 -7.7,-25.4 -11.32,-14.77 -21.49,-9.92 -19.41,-17.77 2.08,-3.66 8.07,-6.77 13.59,-4.77 6.84,2.48 16.4,25.14 37.01,4.38 6.17,-6.21 11.16,-17.11 8.51,-29.56 -0.8,-3.74 -3.38,-12.35 -6.8,-12.29 -4.1,0.07 -0.85,4.79 -7.59,12.25 -8.46,9.37 -17.23,7.39 -23.94,-1.73 -5.02,-6.82 -10.73,-16.32 -23.18,-15.6 -10.98,0.63 -18.1,8.51 -19.05,19.65 -0.51,5.96 0.8,11.58 2.73,16.34 0.85,2.08 2.9,4.54 2.8,6.6 -0.12,2.52 -0.89,5.13 -0.89,8.95z"/>
   <path class="fil3" d="M121.57 83.33c5.92,-0.88 6.7,-0.65 10.22,2.64 5.21,-1.98 11.56,-7.97 20.84,-1.4 4.76,3.38 8.54,12.19 17.34,10.38 11.99,-2.48 23.78,-20.59 16.85,-35.84 -2.28,2.06 -8.72,15.52 -22.44,13.73 -9.43,-1.23 -14.19,-11.36 -19.31,-16.93 -11.86,-12.91 -29.4,-5.48 -27.81,13.42 0.57,6.77 2.37,8.76 4.31,14z"/>
   <path class="fil4" d="M124.87 139.93c5.03,-2.4 3.77,17.42 1.87,18.7 -4.23,2.83 -3.62,-5.8 -3.61,-7.98 0.02,-2.96 -1.29,-9.27 1.74,-10.71zm7.5 4.12c0,-4.3 0.63,-4.74 4.28,-3.95 1.3,4.25 0.96,13.36 0.16,17.96 -5.89,1.42 -4.45,-4.58 -4.45,-14.01zm-18.62 -0.66c0,-4.96 4.94,-5.01 4.94,0 0,6.01 0.88,11.94 -1.23,14.99l-2.47 0.01c-2.02,-2.84 -1.24,-9.91 -1.24,-14.99zm28.01 1.98c0,-4.99 4.94,-6.23 4.94,0.66l0 5.93c0,5.85 -4.94,5.6 -4.94,0.66l0 -7.25zm-37.24 0c0,-2.55 0.14,-2.44 1.24,-3.86l2.47 0.07c2.11,2.8 1.7,11.43 0.31,14.67l-3.28 -0.58c-1.13,-2.32 -0.74,-7.14 -0.74,-10.3zm46.47 3.95c0,-8.06 7.27,-4.71 4.28,4.12 -3.64,0.68 -4.28,-0.04 -4.28,-4.12zm-55.78 0c0,-3 0.47,-3.98 3.13,-4.37 2.98,2.48 3.02,10.02 -2.55,8.32l-0.58 -3.95zm63.35 6.67c1.24,-3.42 0.66,-11.66 0.37,-16.07 -3.86,-1.2 -29.26,-4.92 -33.52,-5.02 -2.58,-0.07 -31.99,4.33 -34.17,5.19l-0.26 15.49c7.34,1.93 29.4,11.58 33.29,12.15 3.95,0.58 27.91,-10.45 34.28,-11.74z"/>
   <path class="fil3" d="M94.55 134.25l28.18 -4.09 -0.01 -30.75c-8.39,1.7 -15.5,6.45 -20.04,11.33 -5.17,5.56 -8.12,13.12 -8.13,23.52z"/>
   <path class="fil3" d="M127.67 129.96l28.25 4.4c-0.15,-10.07 -3.13,-18.34 -8.23,-23.76 -3.75,-3.99 -12.47,-10.31 -20.03,-11.13l0 30.48z"/>
   <path class="fil3" d="M127.75 206.33c6.24,-2.41 15.3,-8.8 20.76,-10.79 -1.12,-4.33 -3.24,-9.05 -4.97,-13.57 -1,-2.62 -4.05,-11.1 -5.63,-13.27l-10.18 4.01 0.02 33.61z"/>
   <path class="fil3" d="M102.66 195.46c2.35,2.01 7.22,4.11 9.9,5.61 3.48,1.94 6.76,3.66 10.15,5.34l-0.13 -33.92 -9.95 -3.47 -9.97 26.43z"/>
   <path class="fil3" d="M97.76 192.95c1.82,-2.31 9.7,-22.35 9.98,-25.97l-15.44 -5.65 -4.58 26.36 10.04 5.26z"/>
   <path class="fil3" d="M158.51 162.29l-1.69 -0.52c-3.25,0.91 -11.11,3.54 -13.81,5.43l9.96 25.47c3.38,-1.19 6.85,-3.36 9.9,-5.11l-4.36 -25.26z"/>
   <path class="fil2" d="M124.87 139.93c-3.02,1.44 -1.72,7.75 -1.74,10.71 -0.01,2.19 -0.62,10.81 3.61,7.98 1.9,-1.27 3.16,-21.09 -1.87,-18.7z"/>
   <path class="fil2" d="M132.36 144.05c0,9.43 -1.44,15.43 4.45,14.01 0.8,-4.6 1.14,-13.71 -0.16,-17.96 -3.65,-0.79 -4.28,-0.35 -4.28,3.95z"/>
   <path class="fil2" d="M113.74 143.39c0,5.08 -0.78,12.16 1.24,14.99l2.47 -0.01c2.11,-3.04 1.23,-8.98 1.23,-14.99 0,-5.01 -4.94,-4.96 -4.94,0z"/>
   <path class="fil2" d="M104.52 145.37c0,3.16 -0.39,7.98 0.74,10.3l3.28 0.58c1.39,-3.24 1.8,-11.87 -0.31,-14.67l-2.47 -0.07c-1.09,1.42 -1.24,1.31 -1.24,3.86z"/>
   <path class="fil2" d="M141.76 145.37l0 7.25c0,4.94 4.94,5.19 4.94,-0.66l0 -5.93c0,-6.89 -4.94,-5.65 -4.94,-0.66z"/>
   <path class="fil5" d="M121.9 94.21l6.92 -0.14c-0,-4.36 0.11,-7 -5.36,-5.95 -1.73,2.27 -1.54,2.31 -1.57,6.1z"/>
   <path class="fil2" d="M150.98 149.32c0,4.08 0.65,4.8 4.28,4.12 2.98,-8.83 -4.28,-12.18 -4.28,-4.12z"/>
   <path class="fil2" d="M95.21 149.32l0.58 3.95c5.57,1.7 5.54,-5.84 2.55,-8.32 -2.66,0.39 -3.13,1.36 -3.13,4.37z"/>
   <path class="fil6" d="M158.56 156l1.29 -1.29c-0.23,-4.25 0.5,-12.95 -0.92,-14.78 0.29,4.41 0.86,12.64 -0.37,16.07z"/>
   <polygon class="fil3" points="158.51,162.29 157.89,161.15 156.82,161.76 "/>
  </g>
 </g>
</svg>
