<?xml version="1.0" encoding="UTF-8"?>
<!DOCTYPE svg PUBLIC "-//W3C//DTD SVG 1.1//EN" "http://www.w3.org/Graphics/SVG/1.1/DTD/svg11.dtd">
<!-- Creator: CorelDRAW 2019 (64-Bit) -->
<svg xmlns="http://www.w3.org/2000/svg" xml:space="preserve" width="8.26772in" height="8.71437in" version="1.1" style="shape-rendering:geometricPrecision; text-rendering:geometricPrecision; image-rendering:optimizeQuality; fill-rule:evenodd; clip-rule:evenodd"
viewBox="0 0 291.36 307.1"
 xmlns:xlink="http://www.w3.org/1999/xlink"
 xmlns:xodm="http://www.corel.com/coreldraw/odm/2003">
 <defs>
  <style type="text/css">
   <![CDATA[
    .str0 {stroke:#2B2A29;stroke-width:0.24;stroke-miterlimit:2.61313}
    .str1 {stroke:#2B2A29;stroke-width:0.24;stroke-miterlimit:2.61313}
    .fil1 {fill:#FEFEFE}
    .fil2 {fill:#2B2A29}
    .fil0 {fill:#2B2A29}
    .fil4 {fill:#4679B8}
    .fil3 {fill:#76747F}
    .fil5 {fill:#B72F0F}
    .fil6 {fill:#B8AFA8}
   ]]>
  </style>
 </defs>
 <g id="Layer_x0020_2">
  <metadata id="CorelCorpID_0Corel-Layer"/>
  <path class="fil0" d="M145.88 275.3c89.61,-42.73 114.06,-114.54 116.02,-208.65l-114.35 -36.2 -0.56 -0.2c-0.11,-0.04 -0.23,-0.08 -0.34,-0.12 -0.43,0.14 -0.86,0.29 -1.27,0.42 -38.62,12.44 -77.36,24.47 -116.02,36.78 -1.15,95.37 26.34,170.45 116.52,207.98zm-134.48 -233.05c42.3,-13.53 82.68,-26.11 124.98,-39.64 10.57,-3.5 10.84,-3.49 20.59,0.04l125.03 39.59c0,0 8.95,2.35 9.36,14.22 -0.41,100.92 -22.74,198.55 -144.64,250.64 -96.37,-35.02 -150.96,-109.86 -146.46,-250.69 0.49,-8.11 2.12,-11.85 11.14,-14.15z"/>
  <path class="fil1" d="M145.88 275.3c89.61,-42.73 114.06,-114.54 116.02,-208.65l-114.35 -36.2 -0.56 -0.2c-0.11,-0.04 -0.23,-0.08 -0.34,-0.12 -0.43,0.14 -0.86,0.29 -1.27,0.42 -38.62,12.44 -77.36,24.47 -116.02,36.78 -1.15,95.37 26.34,170.45 116.52,207.98z"/>
  <g id="_1528167609552">
   <g>
    <path class="fil2 str0" d="M98.41 208.7c-1.63,3.69 -4.22,7.1 -5.76,10.84l-1.02 2.46 -16.75 0 1.95 -5.34c1.26,-3.47 2.93,-6.61 4.89,-9.73 1.26,-2.02 2.8,-4.16 3.83,-6.3l0.41 -0.86c-1.78,-1.94 -3.35,-4.11 -4.67,-6.51 -9.46,-17.3 -12.85,-39.89 -1.05,-57 4.02,-5.83 11.34,-11.69 17.38,-15.3 4.65,-2.79 10.01,-5.19 15.41,-6.01l-0.13 -9.66 0 -0.05c0.04,-3.26 1.06,-6.54 4.12,-8.18 4.09,-2.19 9.16,0.09 12.74,2.28 2.41,1.47 6.03,4.11 7.78,6.34 0.67,0.85 1.27,1.8 1.85,2.71 0.36,0.57 0.8,1.33 1.23,1.95 0.76,-0.87 1.66,-2.07 2.08,-2.55 2.17,-2.56 4.48,-4.74 7.34,-6.51 0.07,-0.04 0.16,-0.1 0.26,-0.17 -0.03,-0 -0.07,-0.01 -0.1,-0.01l-2.89 -0.44 -0.45 -2.89c-0.27,-1.73 -0.3,-3.89 -0.36,-5.65 -0.06,-1.7 -0.23,-4.45 0.09,-6.08 0.1,-0.53 0.24,-1.01 0.4,-1.45 -0.22,0.04 -0.42,0.08 -0.61,0.12 -3.13,0.62 -7.65,1.98 -10.76,1.42 -10.45,-1.9 -13.78,-15.87 -6.61,-23.13 2.83,-2.87 6.34,-4.68 10.46,-3.95 2.5,0.44 4.62,1.71 6.67,3.13 0.91,0.64 3.54,2.65 4.61,2.74 1.11,0.1 2.22,0.15 3.12,-0.59 1.05,-0.87 1.93,-1.95 3.04,-2.85 2.86,-2.31 6.25,-3.22 9.81,-2.1 0.94,0.3 1.84,0.72 2.68,1.23 1.22,0.73 2.31,1.62 3.38,2.55 0.43,0.37 1.08,1.02 1.56,1.33 1.2,0.5 2.7,0.53 3.97,0.45 1.57,-0.1 2.59,-0.2 3.72,-1.28 1.29,-1.22 2.23,-2.14 3.85,-2.99 10.5,-5.54 21.76,4.62 18.9,15.69 -1.2,4.62 -4.02,8.21 -8.78,9.39 -1.07,0.27 -2.18,0.39 -3.28,0.41 -2.08,0.03 -4.14,-0.33 -6.15,-0.85 -1,-0.26 -2.15,-0.69 -3.14,-0.9 -0.14,-0.01 -0.31,-0.02 -0.49,-0.04 0.66,1.78 0.79,5.13 0.82,6.85 0.04,2.65 -0.04,6.42 -2.07,8.39l-0.15 0.14 -0.16 0.13c-0.51,0.4 -1.14,0.71 -1.82,0.95 0,0 0,0.01 0.01,0.01 0.72,0.38 1.43,0.76 2.15,1.2 3.14,1.92 4.46,3.61 6.52,6.53 0.59,0.84 1.44,1.99 2.53,2.18 1.09,0.2 2.77,0.01 3.91,0.01 2.7,-0.01 5.14,0.38 7.69,1.31 11.69,4.27 18.42,16.81 19.08,28.78l0.11 0.04c0.28,0.11 0.59,0.23 0.88,0.31 0.01,0 0.02,0 0.02,0.01 0.08,0.02 0.16,0.04 0.24,0.07 0.18,0.06 0.35,0.13 0.52,0.21 0.3,0.15 0.58,0.33 0.84,0.55 0.67,0.57 1.12,1.33 1.3,2.16 1.45,3.3 0.9,10.04 0.3,13.47l-0.44 2.57 -2.53 0.62c-3.23,0.79 -7.23,0.76 -10.55,0.7 -2.61,-0.04 -5.22,-0.17 -7.83,-0.17 -3.06,0 -6.48,0.39 -9.49,0.06 -6.61,-0.73 -5.79,-5.36 -6.14,-10.46 -0.2,-2.84 -0.37,-6.01 1.64,-8.3 0.13,-0.15 0.26,-0.28 0.4,-0.41 -0.11,-0.14 -0.22,-0.29 -0.34,-0.43 -0.24,0.15 -0.48,0.34 -0.62,0.45 -0.91,0.74 -1.57,1.53 -2.29,2.45 -1.68,2.15 -3.06,3.7 -5.33,5.3 -11.87,8.36 -27.19,7.43 -37.61,-2.86 -1.38,-1.36 -2.34,-3.07 -3.64,-4.33 -0.74,-0.71 -1.4,-0.88 -2.42,-0.87 -0.98,0.01 -2.43,0.93 -3.22,1.45 -1.97,1.29 -3.79,2.75 -5.81,3.99 -4.01,2.45 -8.22,3.7 -12.93,2.58l-3.02 -0.72 -0.23 -16.77c-6.51,2.1 -10.7,3.42 -16.22,8.8 -11.15,10.86 -10.64,26.14 -3.97,39.31 0.63,1.25 1.37,2.73 2.19,4.15 6.05,-5.71 14.5,-10.23 22.22,-12.59 12.99,-3.98 27.11,-2.96 36.51,7.87 3.78,4.36 5.06,10.58 3.72,16.14 -1.73,7.18 -7.27,12.01 -14.02,14.49 -9.73,3.57 -21.95,3.98 -32.08,2.12 -4.54,-0.84 -9.03,-2.18 -13.19,-4.12zm8.84 -13.04c4.66,1.9 11.55,2.47 16.17,2.48 4.42,0.01 9.38,-0.42 13.61,-1.72 1.51,-0.46 5.08,-1.8 5.66,-3.49 0.31,-0.9 -0.41,-2.2 -0.87,-2.92 -1.35,-2.1 -4.65,-3.19 -6.95,-3.66 -4.01,-0.81 -8.49,-0.61 -12.47,0.26 -3.2,0.7 -6.45,1.9 -9.18,3.73 -1.42,0.95 -2.66,1.96 -3.86,3.18 -0.71,0.72 -1.38,1.47 -2.11,2.15z"/>
   </g>
   <g>
    <path class="fil3 str1" d="M117.41 146.14c9.17,2.19 14.84,-8.04 20.99,-8.12 5.24,-0.07 6.25,3.72 8.91,6.35 9.24,9.12 22.44,9.54 32.52,2.44 3.97,-2.79 4.29,-5.07 7.41,-7.59 5.6,-4.52 6.65,2.36 8.66,2.8l21.59 0c-0.32,-12.6 -7.55,-22.91 -16.5,-26.18 -8.05,-2.94 -11.19,1.91 -16.02,-4.95 -1.71,-2.44 -2.63,-3.77 -5.34,-5.43 -4.7,-2.88 -2.43,-0.3 -4.69,-5.54 -30.39,-0.04 -13.97,-0.71 -22.83,4.77 -8.65,5.35 -9.45,13.82 -14.08,8.86 -0.74,-0.8 -2.51,-3.96 -3.63,-5.38 -2.19,-2.78 -17.37,-14.68 -17.53,-2.85l0.55 40.85z"/>
    <path class="fil4 str1" d="M102.46 194.11c2.81,-1.16 3.32,-3.59 8.55,-7.08 10.81,-7.22 29.27,-6.82 34.17,0.83 9.76,15.25 -28.62,17.33 -41.21,10.67 -3.14,-1.66 -6.46,-4.65 -8.66,-6.89 -2.29,-2.34 -4.2,-6.03 -5.8,-9.19 -7.62,-15.03 -7.56,-31.97 4.74,-43.96 6.91,-6.74 12.18,-7.9 19.7,-10.36l0.06 -9.28c-11.95,1.6 -25.78,12.83 -30.51,19.69 -11.1,16.1 -7.24,37.27 1.27,52.83 10.72,19.6 41.28,21.55 57.53,15.6 13.75,-5.04 14.09,-18.03 8.66,-24.28 -15.09,-17.4 -43.59,-5.06 -54.43,6.45 1.4,1.96 3.72,3.46 5.93,4.98z"/>
    <path class="fil5 str1" d="M200.92 75.36c1.99,-7.71 -5.73,-15.11 -13.19,-11.17 -3.41,1.8 -3.03,4.34 -9.18,4.72 -2.05,0.13 -4.11,-0.02 -5.92,-0.82 -2.39,-1.05 -7.09,-8.48 -13.24,-3.52 -2.76,2.23 -3.47,4.8 -9.01,4.31 -5.64,-0.49 -10.78,-10.98 -18.56,-3.1 -5,5.06 -2.72,15.11 4.49,16.42 3.61,0.65 12.33,-3.25 17.36,-1.63 3.22,1.03 -0.95,1.6 5.04,1.69 3.98,0.06 10.06,0.26 13.87,-0.01 6.07,-0.43 -1.04,-2.73 11.27,-1.8 2.04,0.15 14.16,6.13 17.06,-5.09z"/>
    <path class="fil3 str1" d="M213.28 144.4c-19.75,0.05 -21.24,-2.23 -20.64,6.33 0.43,6.15 -0.2,6.47 2.61,6.78 2.02,0.22 6.71,-0.08 9.04,-0.08 5.06,-0 13.15,0.63 17.44,-0.42 0.42,-2.44 1.03,-9.19 -0.07,-11.28 -1.1,-1.2 1.03,-0.12 -1.52,-1.08l-6.87 -0.24z"/>
    <path class="fil6 str1" d="M176.88 84.73c-0.07,-0.01 -1.88,-0.12 -2.04,-0.12l-16.09 -0.01c-6.4,-0.01 -7.73,-0.55 -8.26,2.21 -0.25,1.28 0.1,9.12 0.29,10.37 4.11,0.62 25.66,1.53 28.13,-0.41 1.42,-1.38 0.77,-10 0.28,-11.01l-2.32 -1.02z"/>
    <path class="fil4 str1" d="M80.56 218.03l8.4 0c1.74,-4.21 5.09,-8.78 6.27,-12.12l-6.11 -3.55c-1.97,4.1 -5.96,8.5 -8.57,15.67z"/>
   </g>
  </g>
 </g>
</svg>
