<?xml version="1.0" encoding="UTF-8"?>
<!DOCTYPE svg PUBLIC "-//W3C//DTD SVG 1.1//EN" "http://www.w3.org/Graphics/SVG/1.1/DTD/svg11.dtd">
<!-- Creator: CorelDRAW 2019 (64-Bit) -->
<svg xmlns="http://www.w3.org/2000/svg" xml:space="preserve" width="8.26772in" height="8.71437in" version="1.1" style="shape-rendering:geometricPrecision; text-rendering:geometricPrecision; image-rendering:optimizeQuality; fill-rule:evenodd; clip-rule:evenodd"
viewBox="0 0 290.83 306.54"
 xmlns:xlink="http://www.w3.org/1999/xlink"
 xmlns:xodm="http://www.corel.com/coreldraw/odm/2003">
 <defs>
  <style type="text/css">
   <![CDATA[
    .str0 {stroke:#2B2A29;stroke-width:0.24;stroke-miterlimit:2.61313}
    .fil1 {fill:#FEFEFE}
    .fil0 {fill:#2B2A29}
    .fil5 {fill:#685044}
    .fil3 {fill:#AE8977}
    .fil2 {fill:#B8AFA8}
    .fil4 {fill:#BFA294}
   ]]>
  </style>
 </defs>
 <g id="Layer_x0020_2">
  <metadata id="CorelCorpID_0Corel-Layer"/>
  <path class="fil0" d="M145.61 274.8c89.44,-42.65 113.85,-114.33 115.81,-208.27l-114.14 -36.14 -0.56 -0.2c-0.11,-0.04 -0.23,-0.08 -0.34,-0.12 -0.43,0.14 -0.86,0.29 -1.27,0.42 -38.55,12.42 -77.22,24.42 -115.81,36.71 -1.15,95.2 26.29,170.14 116.3,207.6zm-134.23 -232.62c42.22,-13.51 82.53,-26.06 124.75,-39.57 10.55,-3.5 10.82,-3.48 20.55,0.04l124.8 39.51c0,0 8.93,2.35 9.34,14.19 -0.41,100.74 -22.7,198.19 -144.38,250.18 -96.19,-34.96 -150.68,-109.66 -146.19,-250.23 0.48,-8.1 2.12,-11.83 11.12,-14.13z"/>
  <path class="fil1" d="M145.61 274.8c89.44,-42.65 113.85,-114.33 115.81,-208.27l-114.14 -36.14 -0.56 -0.2c-0.11,-0.04 -0.23,-0.08 -0.34,-0.12 -0.43,0.14 -0.86,0.29 -1.27,0.42 -38.55,12.42 -77.22,24.42 -115.81,36.71 -1.15,95.2 26.29,170.14 116.3,207.6z"/>
  <g id="_1528171258480">
   <polygon class="fil2 str0" points="170.97,187.93 195.91,187.93 195.91,143.91 170.97,143.91 "/>
   <polygon class="fil2 str0" points="94.55,187.93 119.48,187.93 119.48,143.91 94.55,143.91 "/>
   <polygon class="fil3 str0" points="72.93,91.67 217.59,91.67 217.59,81.15 145.48,64.44 72.92,80.81 "/>
   <polygon class="fil4 str0" points="72.81,191.35 217.88,191.35 217.88,197.17 72.81,197.17 "/>
   <polygon class="fil5 str0" points="80.36,201.38 210.58,201.38 210.58,209.13 80.36,209.13 "/>
   <path class="fil0 str0" d="M90.43 177.4l0 10.53 -10.44 -0.04 10.44 -10.49zm-14.56 -81.67l-7 0 -0.01 -18.16 76.62 -17.29 76.16 17.64 0 17.8 -7.07 0 0 92.2 7.52 0 0 13.45 -7.52 0 0 11.97 -138.43 0 0 -11.97 -7.56 0 0 -13.45 7.28 0 0 -92.2zm103.88 10.4l0 -10.4 16.15 0 0 44.06 -28.46 0 0 48.14 -44.45 0 0 -48.14 -28.46 0 0 -44.06 16.42 0 0 10.5 -4.51 0 0 3.86 13.32 0 0 -3.86 -4.73 0 0 -10.5 17.48 0 0 10.4 -4.51 0 0 3.86 13.32 0 0 -3.86 -4.73 0 0 -10.4 17.49 0 0 10.4 -4.51 0 0 3.86 13.32 0 0 -3.86 -4.73 0 0 -10.4 17.49 0 0 10.4 -4.51 0 0 3.86 13.32 0 0 -3.86 -4.73 0zm-85.21 37.78l0 44.02 24.94 0 0 -44.02 -24.94 0zm-13.95 -48.18l9.84 0 0 9.84 -9.84 -9.84zm9.84 21.21l0 17.49 -8.75 -8.75 8.75 -8.75zm0 28.87l0 20.23 -10.11 -10.11 10.11 -10.11zm-10.44 15.56l10.36 10.36 -10.36 10.36 0 -20.71zm0 -31.6l10.36 10.36 -10.36 10.36 0 -20.71zm0 -28.86l10.36 10.36 -10.36 10.36 0 -20.71zm90.98 87.03l24.93 0 0 -44.02 -24.93 0 0 44.02zm29.04 0l-0.01 -10.53 10.45 10.49 -10.44 0.04zm-127.21 3.42l145.08 0 0 5.82 -145.08 0 0 -5.82zm7.56 10.03l130.22 0 0 7.75 -130.22 0 0 -7.75zm119.65 -95.82l0.01 -9.83 9.82 0 -9.83 9.83zm-127.08 -13.88l144.66 0 0 -10.52 -72.12 -16.71 -72.56 16.37 0.01 10.86zm27.2 -9.5l90.26 0 0 3.96 -90.26 0 0 -3.96zm6.77 66.84c3.87,0 7,3.13 7,7 0,3.87 -3.13,7 -7,7 -3.87,0 -7,-3.13 -7,-7 0,-3.87 3.13,-7 7,-7zm0 4.13c1.58,0 2.87,1.28 2.87,2.87 0,1.58 -1.28,2.87 -2.87,2.87 -1.58,0 -2.87,-1.28 -2.87,-2.87 0,-1.58 1.28,-2.87 2.87,-2.87zm0.08 15.3c3.87,0 7,3.13 7,7 0,3.87 -3.13,7 -7,7 -3.87,0 -7,-3.13 -7,-7 0,-3.87 3.13,-7 7,-7zm0 4.13c1.58,0 2.87,1.28 2.87,2.87 0,1.58 -1.28,2.87 -2.87,2.87 -1.58,0 -2.87,-1.28 -2.87,-2.87 0,-1.58 1.28,-2.87 2.87,-2.87zm76.78 -4.26c3.87,0 7,3.13 7,7 0,3.87 -3.13,7 -7,7 -3.87,0 -7,-3.13 -7,-7 0,-3.87 3.13,-7 7,-7zm0 4.13c1.58,0 2.87,1.28 2.87,2.87 0,1.58 -1.28,2.87 -2.87,2.87 -1.58,0 -2.87,-1.28 -2.87,-2.87 0,-1.58 1.28,-2.87 2.87,-2.87zm-0.15 -23.36c3.87,0 7,3.13 7,7 0,3.87 -3.13,7 -7,7 -3.87,0 -7,-3.13 -7,-7 0,-3.87 3.13,-7 7,-7zm0 4.13c1.58,0 2.87,1.28 2.87,2.87 0,1.58 -1.28,2.87 -2.87,2.87 -1.58,0 -2.87,-1.28 -2.87,-2.87 0,-1.58 1.28,-2.87 2.87,-2.87zm16.39 -36.29l0 17.49 8.75 -8.75 -8.75 -8.75zm10.11 38.98l-10.11 10.11 0 -20.23 10.11 10.11zm0.33 26.16l0 -20.71 -10.36 10.36 10.36 10.36zm-10.36 -41.96l10.36 10.36 0 -20.71 -10.36 10.36zm10.36 -18.51l0 -20.71 -10.36 10.36 10.36 10.36z"/>
  </g>
 </g>
</svg>
