<?xml version="1.0" encoding="UTF-8"?>
<!DOCTYPE svg PUBLIC "-//W3C//DTD SVG 1.1//EN" "http://www.w3.org/Graphics/SVG/1.1/DTD/svg11.dtd">
<!-- Creator: CorelDRAW 2019 (64-Bit) -->
<svg xmlns="http://www.w3.org/2000/svg" xml:space="preserve" width="8.26772in" height="8.71437in" version="1.1" style="shape-rendering:geometricPrecision; text-rendering:geometricPrecision; image-rendering:optimizeQuality; fill-rule:evenodd; clip-rule:evenodd"
viewBox="0 0 269.21 283.75"
 xmlns:xlink="http://www.w3.org/1999/xlink"
 xmlns:xodm="http://www.corel.com/coreldraw/odm/2003">
 <defs>
  <style type="text/css">
   <![CDATA[
    .fil1 {fill:#FEFEFE}
    .fil0 {fill:#2B2A29}
    .fil2 {fill:#010101}
    .fil4 {fill:#020203}
    .fil3 {fill:#050506}
    .fil6 {fill:#B8AFA8}
    .fil5 {fill:#EB304A}
   ]]>
  </style>
 </defs>
 <g id="Layer_x0020_2">
  <metadata id="CorelCorpID_0Corel-Layer"/>
  <path class="fil0" d="M134.78 254.37c82.79,-39.48 105.39,-105.83 107.2,-192.79l-105.65 -33.45 -0.51 -0.19c-0.1,-0.04 -0.21,-0.08 -0.31,-0.11 -0.4,0.13 -0.79,0.27 -1.18,0.39 -35.68,11.5 -71.48,22.61 -107.2,33.98 -1.06,88.12 24.33,157.49 107.66,192.17zm-124.25 -215.32c39.08,-12.5 76.4,-24.12 115.48,-36.63 9.77,-3.24 10.02,-3.22 19.02,0.04l115.52 36.58c0,0 8.27,2.17 8.65,13.14 -0.38,93.25 -21.01,183.46 -133.65,231.58 -89.04,-32.36 -139.48,-101.51 -135.32,-231.63 0.45,-7.5 1.96,-10.95 10.3,-13.08z"/>
  <path class="fil1" d="M134.78 254.37c82.79,-39.48 105.39,-105.83 107.2,-192.79l-105.65 -33.45 -0.51 -0.19c-0.1,-0.04 -0.21,-0.08 -0.31,-0.11 -0.4,0.13 -0.79,0.27 -1.18,0.39 -35.68,11.5 -71.48,22.61 -107.2,33.98 -1.06,88.12 24.33,157.49 107.66,192.17z"/>
  <g id="_1528173630592">
   <path class="fil2" d="M79.42 177.39c-1.6,-0.86 -0.93,0.27 -1.64,-2.84l-9.55 -53.59 40.75 0.02 -10.09 56.41 -19.46 -0zm-21.44 -54.92c1.25,9.4 3.58,19.6 5.3,29.29 2.11,11.81 2.69,29.17 9.26,34.1 1.82,1.37 3.92,1.68 6.85,1.75 29.97,0.77 28.06,0.31 31.61,-20.36 1.69,-9.86 3.49,-19.62 5.34,-29.45 2,-10.64 6.29,-21.77 -2.76,-26.06 -4.27,-2.03 -26.95,-1.06 -33.57,-1.06 -6.34,0 -23.94,-2.48 -22.05,11.79z"/>
   <path class="fil2" d="M170.55 120.97l19.46 0c1.59,0.89 0.99,-0.2 1.65,2.87 0.22,1.01 0.38,2.51 0.59,3.64l3.87 21.33c1.78,9.33 3.57,19.05 5.15,28.56l-40.85 -0.01 10.12 -56.4zm40.53 59.8c1.56,-5.22 -7.86,-49.52 -9.37,-58.6 -2.28,-13.71 -9.6,-11.48 -23.12,-11.48 -21.31,0 -16.32,2.03 -24.5,44.32 -0.98,5.08 -1.8,9.76 -2.67,14.82 -0.84,4.9 -2.29,9.58 0.83,13.84 4.47,6.08 21.87,3.94 31.15,3.94 10.06,0.01 24.95,2.35 27.68,-6.84z"/>
   <path class="fil3" d="M139.8 65.91l-0.01 -6.41c0.1,-3.4 0.49,-6.58 -1.34,-8.67 -1.73,-1.98 -4.96,-2.28 -7.13,-0.27 -2.93,2.7 -1.71,13.47 -1.71,18.43 0,18.16 -0.43,128.36 0.24,130.5 0.65,2.11 3.2,4.13 6.33,3.24 5.19,-1.49 3.66,-10.23 3.66,-15.94 -0,-38.72 0.97,-83.57 -0.02,-120.88z"/>
   <path class="fil4" d="M177.83 75.3c12.69,-4.27 19.08,15.67 6.18,19.53 -12.94,3.88 -19.18,-15.16 -6.18,-19.53zm23.09 14.11c5.96,-26.52 -34.53,-35.16 -40.08,-8.79 -5.63,26.76 34.19,35.01 40.08,8.79z"/>
   <path class="fil2" d="M85.21 75.63c13.39,-4.95 18.35,15.09 6.71,19.1 -9.33,3.21 -16.44,-6.54 -12.53,-14.35 0.68,-1.35 1.34,-1.98 2.43,-2.97 2.2,-1.99 1.3,-1.01 3.39,-1.78zm-16.92 12.58c1.51,9.99 10.87,18.74 22.91,17.14 10.53,-1.39 19.24,-10.9 17.64,-23.15 -3.51,-26.75 -44.66,-21.21 -40.55,6z"/>
   <path class="fil5" d="M170.55 120.97l19.46 0c1.59,0.89 0.99,-0.2 1.65,2.87 0.22,1.01 0.38,2.51 0.59,3.64l3.87 21.33c1.78,9.33 3.57,19.05 5.15,28.56l-40.85 -0.01 10.12 -56.4z"/>
   <path class="fil6" d="M79.42 177.39c-1.6,-0.86 -0.93,0.27 -1.64,-2.84l-9.55 -53.59 40.75 0.02 -10.09 56.41 -19.46 -0z"/>
  </g>
 </g>
</svg>
