<?xml version="1.0" encoding="UTF-8"?>
<!DOCTYPE svg PUBLIC "-//W3C//DTD SVG 1.1//EN" "http://www.w3.org/Graphics/SVG/1.1/DTD/svg11.dtd">
<!-- Creator: CorelDRAW 2019 (64-Bit) -->
<svg xmlns="http://www.w3.org/2000/svg" xml:space="preserve" width="8.26772in" height="8.71437in" version="1.1" style="shape-rendering:geometricPrecision; text-rendering:geometricPrecision; image-rendering:optimizeQuality; fill-rule:evenodd; clip-rule:evenodd"
viewBox="0 0 291.64 307.4"
 xmlns:xlink="http://www.w3.org/1999/xlink"
 xmlns:xodm="http://www.corel.com/coreldraw/odm/2003">
 <defs>
  <style type="text/css">
   <![CDATA[
    .fil1 {fill:#FEFEFE}
    .fil0 {fill:#2B2A29}
    .fil2 {fill:black}
    .fil3 {fill:#AE8977}
    .fil5 {fill:#E2222E}
    .fil4 {fill:#FEE9C4}
   ]]>
  </style>
 </defs>
 <g id="Layer_x0020_2">
  <metadata id="CorelCorpID_0Corel-Layer"/>
  <path class="fil0" d="M146.01 275.57c89.69,-42.77 114.17,-114.65 116.13,-208.85l-114.46 -36.24 -0.56 -0.2c-0.11,-0.04 -0.23,-0.08 -0.34,-0.12 -0.43,0.14 -0.86,0.29 -1.28,0.42 -38.65,12.45 -77.44,24.49 -116.13,36.82 -1.15,95.46 26.36,170.61 116.63,208.18zm-134.6 -233.27c42.34,-13.55 82.76,-26.13 125.1,-39.68 10.58,-3.51 10.85,-3.49 20.61,0.04l125.15 39.62c0,0 8.96,2.36 9.37,14.23 -0.41,101.02 -22.76,198.74 -144.78,250.88 -96.46,-35.06 -151.1,-109.97 -146.6,-250.93 0.49,-8.12 2.12,-11.86 11.15,-14.17z"/>
  <path class="fil1" d="M146.01 275.57c89.69,-42.77 114.17,-114.65 116.13,-208.85l-114.46 -36.24 -0.56 -0.2c-0.11,-0.04 -0.23,-0.08 -0.34,-0.12 -0.43,0.14 -0.86,0.29 -1.28,0.42 -38.65,12.45 -77.44,24.49 -116.13,36.82 -1.15,95.46 26.36,170.61 116.63,208.18z"/>
  <g id="_1528171301168">
   <path class="fil2" d="M133.7 139.28c3.44,-0.16 7.41,0.78 11.28,0.86 4.23,0.09 6.86,-0.59 10.69,-1.06 0.82,9.78 -1.46,12.78 -11.45,12.22 -7.79,-0.43 -11.94,-3.64 -10.53,-12.03zm-6.61 -0.87c-0.4,10.3 2.4,16.3 11.53,18.5 9.15,2.2 18.45,0.36 21.98,-6.28 5.54,-10.41 -4.4,-11.52 6.86,-22.7 3.14,-3.11 11.7,-10.32 17.95,-11.62 3.39,2.77 19.74,21.03 14.87,25.7 -3.46,1.52 -7.78,-5.12 -15.64,-4.75 -21.21,1 2.4,41.61 -4.38,46.32 -4.44,1.49 -4.75,-3.32 -6.71,-7.1 -1.56,-3.01 -4.1,-5.86 -6.33,-7.69 -12.23,-10.05 -38.04,-10.38 -47.27,9.74 -0.78,1.7 -1.25,3.15 -2.52,4.5 -3.53,3.73 -4.31,0.87 -4.33,0.85 -2.54,-4.32 4.69,-24.28 5.05,-30.37 0.75,-12.66 -16.79,-6.51 -20.53,3.14l-7.95 -4.5c0.65,-7.36 8.34,-13.21 16.94,-12.2 3.97,0.47 8.95,3.51 10.94,3.2 3.68,-0.57 1.73,-3.71 9.54,-4.73zm-0.8 -59.47c-1.07,17.62 -25.02,16.99 -26.03,0l26.03 0zm-45.87 12.83c-8.07,-0.22 -12.05,-5.22 -12.61,-12.83l26.1 0c-0.75,7.76 -4.99,13.06 -13.49,12.83zm143.17 -12.83c-0.77,17.54 -25.54,16.95 -25.93,0l25.93 0zm-32.47 0c-0.75,16.64 -24.67,18.06 -26.32,0l26.32 0zm-32.45 0.29c-0.68,16.56 -25.01,17.23 -25.93,-0.28l25.93 0.28zm-76.68 -6.82c8.01,-2.9 59.65,-22.78 63.77,-22.82 2.23,-0.02 58.21,20.37 63.76,22.82l-1.55 0.07 -125.97 -0.07zm112.27 17.71c12.51,16.31 38.4,7.26 36.16,-16.74 -3.16,-2 -82.42,-30.57 -84.59,-30.55 -2.1,0.02 -82.18,28.81 -84.74,30.55 -0.89,9.4 2.53,19.21 11.82,23.22 4.2,1.81 9.49,2.14 14.11,0.64 5.43,-1.77 7.28,-5.3 10.53,-6.63 12.01,10.36 19.99,10.63 31.88,-0.24 2.45,1.4 0.95,0.79 3.02,2.69 12.27,11.22 10.11,-9.77 10.11,40.39 -4.5,-0.24 -8.77,-1.27 -13.12,-1.46 -13.55,-0.57 -7.09,5.93 -17.41,2.53 -1.9,-0.63 -3.78,-1.02 -5.9,-1.15 -13.46,-0.82 -24.37,11.33 -23.31,20.27 0.44,3.69 13.62,10.94 17.55,10.67 4.07,-3.63 1.53,-9.36 11.37,-11.58 -2.49,14.12 -11.95,38.36 2.14,38.46 14.11,0.1 8.72,-21.02 28.7,-22.01l-0.28 31.67c-18.77,0.62 -42.89,0.06 -62.63,0.06 -10.92,-0 -16.69,-1.85 -16.24,5.09 4.58,2.98 51.34,1.38 61.35,1.38l94.89 0.07c12.21,0.18 8.89,-4.75 7.35,-5.81 -1.91,-1.32 -12.23,-0.73 -15.14,-0.73 -20.6,0 -42.15,0.61 -62.87,-0.06l0.17 -32.06c8.53,0.42 15.14,4.63 18.31,9.91 0.87,1.45 5.94,16.93 16.19,10.63 6.48,-3.99 3.52,-14.51 1.74,-22.4 -0.89,-3.95 -1.76,-7.63 -2.56,-11.47 -4.49,-21.63 10.04,-7.54 14.45,-6.53 6.38,1.46 10.32,-4.09 10.26,-10.02 -0.11,-9.94 -12.47,-19.07 -15.52,-25.7 3.1,-0.71 7.21,-1.41 6.15,-5.15 -1.66,-5.87 -20.17,3.94 -23.08,5.72 -17.22,10.54 -14.94,18.57 -26.14,19.68 0,-49.85 -2.39,-28.96 9.99,-40.49 1.74,-1.62 1.13,-1.41 3.13,-2.54 2.8,2.3 2.87,3.51 7.03,5.63 2.68,1.37 5.87,2.18 9.28,2.15 7.33,-0.06 12.74,-4.05 15.87,-8.07z"/>
   <path class="fil3" d="M127.09 138.41c-7.81,1.02 -5.86,4.16 -9.54,4.73 -2,0.31 -6.98,-2.74 -10.94,-3.2 -8.59,-1.01 -16.28,4.83 -16.94,12.2l7.95 4.5c3.74,-9.65 21.28,-15.8 20.53,-3.14 -0.36,6.09 -7.59,26.05 -5.05,30.37 0.02,0.02 0.8,2.89 4.33,-0.85 1.27,-1.34 1.74,-2.8 2.52,-4.5 9.23,-20.12 35.04,-19.78 47.27,-9.74 2.23,1.83 4.77,4.68 6.33,7.69 1.96,3.78 2.27,8.59 6.71,7.1 6.78,-4.71 -16.83,-45.32 4.38,-46.32 7.87,-0.37 12.19,6.27 15.64,4.75 4.87,-4.67 -11.48,-22.93 -14.87,-25.7 -6.25,1.3 -14.82,8.51 -17.95,11.62 -11.27,11.18 -1.32,12.3 -6.86,22.7 -3.53,6.63 -12.83,8.48 -21.98,6.28 -9.14,-2.2 -11.93,-8.2 -11.53,-18.5z"/>
   <path class="fil4" d="M81.99 72.41l125.97 0.07 1.55 -0.07c-5.55,-2.45 -61.53,-22.84 -63.76,-22.82 -4.11,0.04 -55.76,19.93 -63.77,22.82z"/>
   <path class="fil4" d="M191.12 78.95l-26.32 0c1.65,18.06 25.57,16.64 26.32,0z"/>
   <path class="fil4" d="M93.91 78.95l-26.1 0c0.57,7.62 4.54,12.61 12.61,12.83 8.5,0.23 12.74,-5.08 13.49,-12.83z"/>
   <path class="fil4" d="M223.59 78.95l-25.93 0c0.39,16.95 25.16,17.54 25.93,0z"/>
   <path class="fil4" d="M126.29 78.95l-26.03 0c1.02,16.99 24.96,17.62 26.03,0z"/>
   <path class="fil4" d="M158.67 79.23l-25.93 -0.28c0.92,17.5 25.25,16.84 25.93,0.28z"/>
   <path class="fil5" d="M155.67 139.09c-3.83,0.47 -6.47,1.15 -10.69,1.06 -3.86,-0.08 -7.84,-1.02 -11.28,-0.86 -1.41,8.39 2.74,11.59 10.53,12.03 9.98,0.55 12.27,-2.44 11.45,-12.22z"/>
  </g>
 </g>
</svg>
