<?xml version="1.0" encoding="UTF-8"?>
<!DOCTYPE svg PUBLIC "-//W3C//DTD SVG 1.1//EN" "http://www.w3.org/Graphics/SVG/1.1/DTD/svg11.dtd">
<!-- Creator: CorelDRAW 2019 (64-Bit) -->
<svg xmlns="http://www.w3.org/2000/svg" xml:space="preserve" width="8.26772in" height="8.71437in" version="1.1" style="shape-rendering:geometricPrecision; text-rendering:geometricPrecision; image-rendering:optimizeQuality; fill-rule:evenodd; clip-rule:evenodd"
viewBox="0 0 247.96 261.35"
 xmlns:xlink="http://www.w3.org/1999/xlink"
 xmlns:xodm="http://www.corel.com/coreldraw/odm/2003">
 <defs>
  <style type="text/css">
   <![CDATA[
    .fil1 {fill:#FEFEFE}
    .fil2 {fill:#2B2A29}
    .fil0 {fill:#2B2A29}
    .fil5 {fill:#511F20}
    .fil4 {fill:#B8AFA8}
    .fil3 {fill:#E65C29}
   ]]>
  </style>
 </defs>
 <g id="Layer_x0020_2">
  <metadata id="CorelCorpID_0Corel-Layer"/>
  <path class="fil0" d="M124.14 234.29c76.26,-36.36 97.07,-97.48 98.74,-177.57l-97.31 -30.81 -0.47 -0.17c-0.1,-0.03 -0.19,-0.07 -0.29,-0.11 -0.37,0.12 -0.73,0.24 -1.08,0.36 -32.86,10.59 -65.84,20.82 -98.74,31.3 -0.98,81.16 22.41,145.06 99.16,177zm-114.44 -198.33c36,-11.52 70.37,-22.22 106.36,-33.74 9,-2.98 9.22,-2.97 17.52,0.03l106.4 33.69c0,0 7.62,2 7.97,12.1 -0.35,85.89 -19.35,168.97 -123.09,213.3 -82.01,-29.8 -128.47,-93.5 -124.64,-213.34 0.41,-6.9 1.8,-10.09 9.48,-12.05z"/>
  <path class="fil1" d="M124.14 234.29c76.26,-36.36 97.07,-97.48 98.74,-177.57l-97.31 -30.81 -0.47 -0.17c-0.1,-0.03 -0.19,-0.07 -0.29,-0.11 -0.37,0.12 -0.73,0.24 -1.08,0.36 -32.86,10.59 -65.84,20.82 -98.74,31.3 -0.98,81.16 22.41,145.06 99.16,177z"/>
  <g id="_1528167604560">
   <path class="fil2" d="M137.63 69.48c0.21,-3.57 1.06,-7.81 3.23,-10.62 2.78,-3.4 3.86,-2.7 5.83,0.16 2.16,3.15 2.86,7.29 3.2,11.03l0.08 0.83 0.11 0.04c0.8,-0.33 1.6,-0.68 2.38,-1.04 4.63,-2.13 8.39,-4.8 12.37,-7.93 1.68,-1.32 3.34,-2.65 5.04,-3.94 3.54,-2.66 7.74,-4.1 12.15,-4.26 7.09,-0.26 14.2,2.79 18.96,8.04 5.48,6.04 7.05,13.94 4.9,21.74 -2.36,8.58 -8.91,12.98 -15.54,18.04 -11.54,8.81 -25.55,14.85 -40.23,18.16l0.01 3.19c0.04,9.16 0.37,18.35 0.01,27.51 -0.19,4.7 -1.39,8.91 -4.12,12.76 -2,2.82 -4.45,4.91 -6.86,7.32 -1.4,1.4 -2.86,2.74 -4.26,4.14 -0.44,0.44 -1.13,1.11 -1.4,1.68 -0.33,0.7 -0.35,2.07 -0.37,2.82 -0.06,2.97 0.05,5.98 0.05,8.96 0,9.3 0,18.59 0,27.89l0 3.61 -18.54 0 0 -3.61c0,-9.09 0,-18.18 0,-27.27 0,-3.08 0.12,-6.19 0.08,-9.27 -0.01,-0.8 -0.01,-2.25 -0.35,-3 -0.27,-0.59 -0.95,-1.28 -1.4,-1.73 -1.4,-1.43 -2.89,-2.8 -4.3,-4.22 -2.35,-2.35 -4.73,-4.38 -6.7,-7.11 -2.7,-3.72 -4,-7.77 -4.25,-12.35 -0.52,-9.27 -0.06,-18.6 -0.06,-27.88l0 -3.11c-10.13,-2.25 -19.93,-5.95 -28.91,-11.21 -13.84,-8.11 -31.95,-19.03 -26.8,-38.03 2.46,-9.08 10.04,-15.47 19.32,-16.81 5.27,-0.76 10.05,0.15 14.66,2.81 3.35,1.93 5.89,4.4 8.91,6.69 3.92,2.98 8.36,5.45 12.96,7.4l0.08 -0.78c0.37,-3.74 1.07,-8.01 3.26,-11.14l2.82 -4.03 3 3.9c2.65,3.45 3.2,8.67 3.42,12.92l0.16 3.08c8.37,1.66 17.16,1.67 25.63,0.13l-0.17 -0.03 1.67 -5.48zm-0.25 52.43c-9.04,1.07 -18.15,1.14 -26.92,0.24l0.04 1.54c0.06,2.26 -0.02,4.51 -0.04,6.76 -0.02,1.76 -0.01,3.56 0.27,5.31 0.3,1.93 0.9,3.62 1.92,5.28 4.94,8.05 17.14,8.19 22.32,0.3 0.61,-0.94 1.07,-1.94 1.4,-3.01 1.31,-4.23 0.82,-10.02 0.95,-14.48l0.06 -1.94z"/>
   <path class="fil3" d="M96.44 108.26c-1.82,-4.12 2.67,-9.38 4.87,-13.41 4.4,-8.07 4.95,-11.19 9.47,-8.37 0.64,3.86 -3.72,9.67 -5.53,12.93 -4.19,7.58 -4.21,9.72 -8.81,8.85zm49.17 -22.59c2.99,-1.36 4.14,2.07 3.11,4.47 -0.73,1.71 -9.65,17.57 -11.05,18.19 -2.95,1.3 -4.44,-1.46 -3.21,-4.42 0.65,-1.57 9.27,-17.39 11.15,-18.24zm40.17 -13.49c0.72,3.83 -3.86,10.41 -5.69,13.48 -1.4,2.35 -2.22,4.13 -3.55,6.35 -2.32,3.87 -4.83,2.44 -5.48,1.07 -1.17,-2.48 4.43,-10.83 5.77,-13.15 2.34,-4.03 3.72,-10.47 8.95,-7.75zm-115.18 -6.39c2.67,-1.28 4.36,1.41 3.1,4.45 -0.62,1.49 -9.58,17.63 -11,18.26 -3.23,1.42 -4.27,-2.13 -3.26,-4.48 0.83,-1.94 2.43,-4.23 3.63,-6.35 1.38,-2.44 5.46,-10.88 7.53,-11.87zm-8.83 -8.21c-8.22,1.19 -14.36,6.82 -16.36,14.18 -4.49,16.57 12.12,26.34 25.14,33.97 36.97,21.66 88.03,15.54 117.61,-7.05 5.36,-4.09 12.13,-8.42 14.25,-16.13 5.33,-19.33 -17.08,-31.68 -30.36,-21.68 -5.73,4.31 -10.32,8.69 -18.07,12.26 -15.13,6.97 -34.05,8.87 -51.19,3.45 -7.68,-2.43 -14.64,-6.03 -20.15,-10.21 -5.2,-3.95 -10.59,-10.29 -20.87,-8.8z"/>
   <path class="fil4" d="M101.24 123.17c0,8.89 -0.44,18.94 0.05,27.68 0.52,9.21 5.71,12.91 9.91,17.11 8.41,8.41 7.04,4.95 7.04,20.76 0,9.09 0,18.18 0,27.27l11.32 0c0,-9.3 0,-18.59 0,-27.89 0,-15.42 -1.16,-11.94 7.04,-20.14 4.4,-4.4 9.55,-8 9.93,-17.68 0.35,-8.78 0.03,-18.25 -0.01,-27.36l-5.59 1.02c-0.22,7.23 0.67,13.85 -2.94,19.36 -6.65,10.14 -22.11,9.87 -28.41,-0.39 -3.72,-6.07 -2.48,-11.59 -2.68,-19.15l-5.65 -0.61z"/>
   <path class="fil5" d="M96.44 108.26c4.6,0.87 4.62,-1.28 8.81,-8.85 1.8,-3.26 6.17,-9.07 5.53,-12.93 -4.52,-2.81 -5.07,0.31 -9.47,8.37 -2.2,4.03 -6.69,9.29 -4.87,13.41z"/>
   <path class="fil5" d="M145.6 85.67c-1.88,0.85 -10.5,16.68 -11.15,18.24 -1.23,2.96 0.26,5.72 3.21,4.42 1.41,-0.62 10.32,-16.49 11.05,-18.19 1.03,-2.4 -0.12,-5.83 -3.11,-4.47z"/>
   <path class="fil5" d="M185.77 72.19c-5.23,-2.72 -6.61,3.71 -8.95,7.75 -1.35,2.32 -6.94,10.67 -5.77,13.15 0.65,1.38 3.15,2.8 5.48,-1.07 1.33,-2.22 2.15,-4.01 3.55,-6.35 1.83,-3.07 6.41,-9.65 5.69,-13.48z"/>
   <path class="fil5" d="M70.59 65.8c-2.07,0.99 -6.15,9.43 -7.53,11.87 -1.2,2.12 -2.79,4.42 -3.63,6.35 -1.01,2.35 0.03,5.91 3.26,4.48 1.42,-0.62 10.38,-16.77 11,-18.26 1.26,-3.03 -0.43,-5.72 -3.1,-4.45z"/>
   <path class="fil4" d="M101.45 70.48l5.3 1.48c-0.2,-3.9 -0.7,-8.34 -2.67,-10.91 -1.66,2.37 -2.29,5.95 -2.63,9.43z"/>
   <path class="fil4" d="M141.21 70.1c0.06,2.72 -0.3,1.01 1.11,1.58l3.99 -1.31c-0.31,-3.37 -0.92,-6.89 -2.58,-9.31 -1.66,2.14 -2.37,5.86 -2.51,9.05z"/>
  </g>
 </g>
</svg>
